<?xml version="1.0" encoding="utf-8"?>
<!-- Generator: Adobe Illustrator 19.2.0, SVG Export Plug-In . SVG Version: 6.00 Build 0)  -->
<svg version="1.1" id="Capa_1" xmlns="http://www.w3.org/2000/svg" xmlns:xlink="http://www.w3.org/1999/xlink" x="0px" y="0px"
	 viewBox="0 0 438.4 498.2" style="enable-background:new 0 0 438.4 498.2;" xml:space="preserve">
<path d="M137,222.8c-56.5,30.5-118.3-2.4-134.4-52.4c-16.4-51,12.1-105,62.4-119.3c51.6-14.7,106.7,16.4,118.1,72.8
	c34.2,0,68.4,0,103.2,0c2.7-11.5,5.5-23.3,8.2-35c2.6-11.2,5.3-22.3,7.8-33.6c1-4.5,3.5-7.3,7.7-9c36.8-15,73.6-30,110.4-45
	c7.1-2.9,12.8-0.9,15.1,4.9c2.3,5.8-0.5,11.1-7.5,14C394,34.1,360,48.1,325.9,61.8c-3.3,1.3-4.9,3-5.7,6.6
	c-3.9,17.5-8.1,35-12.2,52.5c-0.2,0.9-0.3,1.9-0.5,3.3c17,0,33.9,0,50.7,0c13.2,0,26.3,0.1,39.5,0c9.6-0.1,17,3.6,20.8,12.6
	c3.7,8.8,1.3,16.5-5.1,23.3c-44.4,47.5-88.7,95-133.1,142.4c-2.6,2.8-3.7,5.5-3.6,9.3c0.1,36.2,0.2,72.3,0,108.5
	c0,5.1,1.8,8.6,5.6,11.5c10.4,7.8,22.6,11.3,34.9,14.2c6.1,1.5,12.4,2.3,18.7,3.1c13.9,1.7,23.3,12.4,22.7,26.3
	c-0.6,12.6-11.5,22.7-25.3,22.7c-32.8,0.1-65.7,0-98.5,0c-24.8,0-49.7,0.1-74.5-0.1c-10.5-0.1-18.8-4.6-23.2-14.4
	c-4.1-9-2.8-17.6,3.3-25.3c4.9-6.2,11.7-8.4,19.3-9.2c14.7-1.6,28.9-4.9,42-12c2.5-1.3,4.9-2.9,7.2-4.5c4.6-3.3,6.8-7.4,6.8-13.5
	c-0.3-36.3-0.1-72.6-0.2-109c0-1.8-0.5-4.1-1.7-5.4c-25.2-27.3-50.6-54.4-75.9-81.6C137.6,223.1,137.2,222.9,137,222.8z M399,145.3
	c-102.2,0-203.6,0-305.8,0c2,2.2,3.3,3.8,4.8,5.3c44.8,48,89.6,96,134.5,143.9c2.4,2.6,3.5,5.1,3.5,8.8c-0.1,38.3-0.5,76.6,0.2,115
	c0.2,15.1-6,25.5-18.1,33.2c-11.8,7.6-24.9,11.9-38.5,14.7c-6.5,1.4-13.2,2-19.6,3.5c-1.7,0.4-2.9,2.9-4.4,4.4
	c1.5,1.2,3,2.6,4.7,3.4c1.3,0.6,3,0.2,4.5,0.2c55.2,0,110.3,0,165.5,0c1.5,0,3.2,0.3,4.4-0.3c1.4-0.7,3.3-2.2,3.3-3.5
	c0-1.2-1.8-3-3.2-3.6c-1.7-0.8-3.9-0.7-5.9-1c-16.1-2.3-31.7-6-46.4-13.2c-17-8.3-27.1-20-26.4-40.9c1.3-37.1,0.4-74.3,0.3-111.5
	c0-3.8,0.9-6.5,3.5-9.3c45.1-48.1,90.2-96.3,135.2-144.5C396.3,148.5,397.4,147.2,399,145.3z M64.7,144.9c0-0.4,0-0.8,0-1.2
	c-15.4-2.8-30.9-5.6-46.2-8.4c-5.2,9.9-3.4,22.3,4.3,30C36.7,158.6,50.7,151.8,64.7,144.9z M95.5,114.4c0.3,0,0.7,0,1,0.1
	c7.4-13.5,14.8-27,22.2-40.4c-7.3-8-17.9-10-29.8-5.7C91.1,83.6,93.3,99,95.5,114.4z M49.9,201.3c7.5-14,14.8-27.8,22.2-41.6
	c-14.1,5.7-27.5,12.1-40.8,18.7c-0.9,0.4-1.7,2.6-1.4,3.5C33.1,191.7,39.6,198.2,49.9,201.3z M93.8,213.8
	c-2.3-15.4-4.5-30.3-6.7-45.2c-0.5,0-1,0-1.5,0C78.4,181.8,71.2,195,64,208.3C73.1,215.8,82.6,217.6,93.8,213.8z M35.8,94.3
	c-8.9,5.3-13.6,12.8-14.3,22.8c-0.2,2.6,0.5,3.9,3.4,4.2c4.9,0.6,9.8,1.7,14.7,2.6c9.2,1.6,18.5,3.2,29.2,5
	C57.1,116.7,46.5,105.6,35.8,94.3z M132.6,81.2c-7.6,13.8-14.9,27.2-22.2,40.6c0.3,0.2,0.7,0.5,1,0.7c13.9-6.6,27.8-13.2,42-19.8
	C150.3,91.6,143.8,84.6,132.6,81.2z M78.7,116c0.3-0.2,0.7-0.3,1-0.5c-2.1-15-4.1-29.9-6.2-44.7c-11.2-1.4-22.2,3.9-26.3,12.3
	C57.7,94.1,68.2,105.1,78.7,116z M108.9,212.2c5.3-0.8,10.2-1.5,16.3-2.4c-6.9-7.3-12.7-13.5-19.5-20.8
	C106.8,197.3,107.8,204.1,108.9,212.2z M165,124.1c-1.9-3.6-3.4-6.5-5.1-9.8c-6.3,3.2-11.9,6.1-17.5,8.9c0.1,0.3,0.2,0.5,0.3,0.8
	C149.8,124.1,156.8,124.1,165,124.1z"/>
<path d="M148.9,180.9c65,0,129.5,0,195.2,0c-1.8,4-2.7,7.9-5,10.7c-8.4,10.3-16.7,20.8-26,30.2c-14.8,14.9-31.2,28-49.3,38.8
	c-2.4,1.4-5,2.7-7.4,4c-6.8,3.8-13.9,4.2-20.4,0c-12.5-8.1-25.2-16.2-37-25.2c-15.3-11.8-29.2-25.3-41.1-40.7
	C154,193.5,150,188.2,148.9,180.9z"/>
</svg>
