<?xml version="1.0" encoding="utf-8"?>
<!-- Generator: Adobe Illustrator 19.2.0, SVG Export Plug-In . SVG Version: 6.00 Build 0)  -->
<svg version="1.1" id="Capa_1" xmlns="http://www.w3.org/2000/svg" xmlns:xlink="http://www.w3.org/1999/xlink" x="0px" y="0px"
	 viewBox="0 0 511.8 511.9" style="enable-background:new 0 0 511.8 511.9;" xml:space="preserve">
<path d="M352.8,95.9c-0.1,14.9-3.7,26-9.6,36.5c-33,58.8-66,117.6-98.9,176.4c-23.4,41.8-46.8,83.7-70.4,125.4
	c-12.7,22.4-32.5,33.2-58,33.3c-10.6,0-20.7-3-30-8.2c-9.6-5.4-19.2-10.8-28.8-16.1c-34.9-19.4-45.7-57-26.3-91.8
	c41.6-74.4,83.3-148.7,125-223c14.5-25.8,28.9-51.7,43.5-77.5c18.9-33.5,56.6-44.1,90.2-25.6c10.1,5.6,20.1,11.1,30,16.9
	C341.1,54.7,351.8,73.9,352.8,95.9z M249.8,268.7c0.9-1.4,1.4-2,1.8-2.7c26.9-48,54.1-96,80.7-144.2c13.2-23.9,4.6-52.8-19.1-66.6
	c-10.1-5.9-20.3-11.4-30.5-17.1C255.9,23.2,227,31.1,212,57.7c-26.2,46.6-52.2,93.2-78.3,139.8c-0.8,1.4-1.5,2.9-2.4,4.7
	C170.9,224.5,210.1,246.5,249.8,268.7z"/>
<path d="M369.3,355.8c-36.5,0-73,0-109.4,0c-9.9,0-13.6-4.7-11.2-14.3c12.5-50.8,55.9-88.5,107.9-93.6c62.8-6.1,119.3,34.1,133.6,95
	c1.9,8-2,12.9-10.4,12.9C442.9,355.8,406.1,355.8,369.3,355.8z"/>
<path d="M369.3,387c36.3,0,72.6,0,108.9,0c10.5,0,14,4.5,11.5,14.9c-11.7,47.5-52.1,84.5-100.5,92c-64.6,10-124.3-29.2-140.5-92.1
	c-2.2-8.4,0.8-15,11.7-14.9C296.7,387.2,333,387,369.3,387z"/>
</svg>
