<?xml version="1.0" encoding="utf-8"?>
<!-- Generator: Adobe Illustrator 19.2.0, SVG Export Plug-In . SVG Version: 6.00 Build 0)  -->
<svg version="1.1" id="Capa_1" xmlns="http://www.w3.org/2000/svg" xmlns:xlink="http://www.w3.org/1999/xlink" x="0px" y="0px"
	 viewBox="0 0 538 543" style="enable-background:new 0 0 538 543;" xml:space="preserve">
<path d="M13,157c2-6.1,3.6-12.3,6.1-18.3c4.4-10.8,11.7-19.4,20.5-27.1c9-7.9,19-13.3,30.4-16c6.2-1.4,12.6-2.4,19-2.5
	c20.5-0.3,40.9-0.1,61.7-0.1c0,13.7,0,27.1,0,41c-1.9,0-3.7,0-5.5,0c-19.7,0-39.3,0.1-59,0C71.2,133.8,53,150.4,53,167.1
	C53,272.4,53,377.7,53,483c0,1.1,0,2.3,0,3.7c58.8,0,117.1,0,175.9,0c0-39.1,0-78,0-117.3c26.7,0,53.1,0,80.1,0
	c0,39.1,0,78.1,0,117.4c58.8,0,117.1,0,176.1,0c0-1.7,0-3.5,0-5.3c0-104.5-0.1-209,0.1-313.4c0-17.2-18.5-34.6-34.3-34.2
	c-21,0.5-42,0.1-63.4,0.1c0-13.6,0-26.9,0-41c1.7,0,3.4,0,5.2,0c18,0,36-0.1,54,0c16.7,0.1,32.4,3.7,46.2,13.9
	c16.7,12.4,28.2,28,31.4,49c0.1,0.4,0.6,0.7,0.9,1c0,123.3,0,246.7,0,370c-170.7,0-341.3,0-512,0C13,403.7,13,280.3,13,157z"/>
<path d="M337,15c5.7,3.2,11.8,6,17.1,9.7c7.6,5.3,11.8,13.2,12.7,22.2c1,9.5,1.1,19.2,1.1,28.7c0.1,30.8-0.1,61.6,0.1,92.4
	c0.1,12.3-2.7,23.6-11.4,32.4c-6.6,6.7-14.9,11.4-24.7,11.5c-41.6,0.1-83.3,0-124.9,0.1c-14.2,0-29.7-11.3-33.9-24.7
	c-1.8-5.7-3-11.8-3-17.7c-0.3-37,0-73.9-0.2-110.9c-0.1-11.7,2.6-22.5,10.4-31.3c4.9-5.6,11.5-9,18.6-11.3c0.7-0.2,1.3-0.7,2-1
	C246.3,15,291.7,15,337,15z M287.8,94.1c0-13.4,0-26.2,0-38.8c-12.8,0-25.1,0-37.9,0c0,13,0,25.7,0,38.9c-13.6,0-26.7,0-39.7,0
	c0,13.1,0,25.7,0,38.9c13.3,0,26.4,0,39.9,0c0,13.3,0,26,0,38.7c12.8,0,25.1,0,37.9,0c0-13,0-25.7,0-38.9c13.6,0,26.7,0,39.7,0
	c0-13.1,0-25.7,0-38.7C314.6,94.1,301.6,94.1,287.8,94.1z"/>
<path d="M190.8,271.4c0,19.9,0,39.5,0,59.4c-26.5,0-52.7,0-79.4,0c0-19.6,0-39.3,0-59.4C137.6,271.4,164,271.4,190.8,271.4z"/>
<path d="M308.6,330.8c-26.6,0-52.9,0-79.4,0c0-19.8,0-39.4,0-59.4c26.3,0,52.7,0,79.4,0C308.6,291,308.6,310.7,308.6,330.8z"/>
<path d="M426.6,330.9c-26.6,0-52.7,0-79.2,0c0-19.8,0-39.5,0-59.6c26.3,0,52.7,0,79.2,0C426.6,291.2,426.6,311,426.6,330.9z"/>
<path d="M190.6,428.8c-26.6,0-52.8,0-79.4,0c0-19.8,0-39.4,0-59.4c26.3,0,52.6,0,79.4,0C190.6,389,190.6,408.7,190.6,428.8z"/>
<path d="M426.6,428.8c-26.6,0-52.8,0-79.4,0c0-19.8,0-39.4,0-59.4c26.3,0,52.6,0,79.4,0C426.6,389,426.6,408.7,426.6,428.8z"/>
</svg>
