<?xml version="1.0" encoding="utf-8"?>
<!-- Generator: Adobe Illustrator 19.2.0, SVG Export Plug-In . SVG Version: 6.00 Build 0)  -->
<svg version="1.1" id="Capa_1" xmlns="http://www.w3.org/2000/svg" xmlns:xlink="http://www.w3.org/1999/xlink" x="0px" y="0px"
	 viewBox="0 0 95.3 96.2" style="enable-background:new 0 0 95.3 96.2;" xml:space="preserve">
<style type="text/css">
	.st0{fill:#FFFFFF;}
</style>
<g>
	<path d="M5.3,75.8c0-18.6,0-37.1,0-55.7c0.1-0.2,0.3-0.5,0.3-0.7c0.8-4,2.9-7.3,6-10c2.4-2,5.3-3,8.3-3.9c18.6,0,37.1,0,55.7,0
		c0.2,0.1,0.5,0.3,0.7,0.3c7.2,1.5,12.5,7,13.6,14.2c0.1,0.9,0.2,1.9,0.2,2.8c0,16.7,0,33.5,0,50.2c0,9.3-7.2,17.2-16.1,17.2
		c-17.5,0.2-35,0.1-52.5,0c-4.8,0-8.7-2.2-11.9-5.7C7.3,82,6.2,79,5.3,75.8z M39.3,53.9c0-5.6,0-11.1,0-16.5c-2.9,0-5.7,0-8.4,0
		c0,14.1,0,28.1,0,42.2c2.9,0,5.6,0,8.5,0c0-6.2,0-12.2,0-18.3c5.6,0,11.1,0,16.7,0c0,6.2,0,12.2,0,18.3c2.9,0,5.6,0,8.4,0
		c0-14.1,0-28.2,0-42.2c-2.8,0-5.6,0-8.5,0c0,5.5,0,11,0,16.5C50.5,53.9,45,53.9,39.3,53.9z M79.5,32c-0.7-0.4-1.1-0.6-1.6-0.9
		c-9.6-4.8-19.2-9.5-28.7-14.3c-1-0.5-1.9-0.5-2.9,0c-9.6,4.8-19.1,9.5-28.7,14.3c-0.5,0.3-1,0.6-1.6,0.9c0.9,1.8,1.7,3.5,2.6,5.3
		c9.4-4.7,18.5-9.2,27.7-13.8c1-0.5,1.9-0.5,2.9,0c8.7,4.4,17.4,8.7,26,13c0.5,0.3,1.1,0.5,1.7,0.8C77.8,35.5,78.6,33.8,79.5,32z"/>
	<path class="st0" d="M5.3,75.8c0.9,3.2,2,6.3,4.3,8.8c3.2,3.5,7.1,5.7,11.9,5.7c17.5,0.1,35,0.1,52.5,0c9-0.1,16.1-7.9,16.1-17.2
		c0-16.7,0-33.5,0-50.2c0-0.9-0.1-1.9-0.2-2.8c-1.2-7.3-6.4-12.7-13.6-14.2c-0.3-0.1-0.5-0.2-0.7-0.3c5,0,9.9,0,14.9,0
		c0,28.4,0,56.8,0,85.2c-28.4,0-56.8,0-85.2,0C5.3,85.7,5.3,80.7,5.3,75.8z"/>
	<path class="st0" d="M19.9,5.5c-3,0.8-5.8,1.8-8.3,3.9c-3.1,2.7-5.2,5.9-6,10c-0.1,0.3-0.2,0.5-0.3,0.7c0-4.9,0-9.7,0-14.6
		C10.2,5.5,15.1,5.5,19.9,5.5z"/>
	<path class="st0" d="M39.3,53.9c5.7,0,11.2,0,16.8,0c0-5.5,0-10.9,0-16.5c2.9,0,5.6,0,8.5,0c0,14.1,0,28.1,0,42.2
		c-2.8,0-5.5,0-8.4,0c0-6.1,0-12.1,0-18.3c-5.6,0-11.1,0-16.7,0c0,6.1,0,12.1,0,18.3c-2.9,0-5.7,0-8.5,0c0-14,0-28,0-42.2
		c2.7,0,5.5,0,8.4,0C39.3,42.8,39.3,48.2,39.3,53.9z"/>
	<path class="st0" d="M79.5,32c-0.9,1.8-1.7,3.5-2.6,5.2c-0.6-0.3-1.2-0.5-1.7-0.8c-8.7-4.3-17.4-8.6-26-13c-1-0.5-1.9-0.5-2.9,0
		c-9.2,4.6-18.3,9.2-27.7,13.8c-0.9-1.7-1.7-3.5-2.6-5.3c0.6-0.3,1.1-0.6,1.6-0.9c9.6-4.8,19.2-9.5,28.7-14.3c1-0.5,1.9-0.5,2.9,0
		c9.6,4.8,19.1,9.5,28.7,14.3C78.4,31.4,78.9,31.6,79.5,32z"/>
</g>
</svg>
