<?xml version="1.0" encoding="utf-8"?>
<!-- Generator: Adobe Illustrator 19.2.0, SVG Export Plug-In . SVG Version: 6.00 Build 0)  -->
<svg version="1.1" id="Capa_1" xmlns="http://www.w3.org/2000/svg" xmlns:xlink="http://www.w3.org/1999/xlink" x="0px" y="0px"
	 viewBox="0 0 624 384" style="enable-background:new 0 0 624 384;" xml:space="preserve">
<path d="M574.9,151.6c3.5,27.9,6.9,55.3,10.3,83.3c-10.4,0.4-19.9-2.2-29.2-5.7c-7.4-2.8-15-5.5-22.8-7.1
	c-14.3-2.9-28.2-0.3-41.5,5.4c-22.5,9.8-44.6,10-67.1-0.2c-19.7-8.9-39.9-8.4-59.6,0.2c-22.7,9.9-44.9,10-67.6-0.3
	c-19.5-8.8-39.6-8.3-59.2,0.2c-22.7,9.9-44.9,10.1-67.6-0.1c-19.8-8.9-40-8.1-60.1,0.2c-15.9,6.6-11.6,7.8-21.2-6.2
	c-19.4-28-36.2-57.5-45.5-90.6c-2.1-7.4-2.9-15.2-4.4-23.7c6.8,0.5,12.3,0.8,17.9,1.3c34.4,2.9,68.7,5.7,103.1,8.7
	c4,0.3,6.8-0.6,9.6-3.6c16.8-17.3,33.8-34.5,50.9-51.6c1.6-1.6,4.5-2.7,6.8-2.6c6.8,0.2,13.5,1.1,22.1,2
	c-20.1,19.6-39.2,38.3-58.3,57c0.3,0.5,0.5,0.9,0.8,1.4C319.5,130.2,446.9,140.9,574.9,151.6z"/>
<path d="M77.7,321.1c0-15.7,0-30.8,0-46.3c3.9-0.4,7.8-0.3,11.4-1.2c7.4-1.9,14.8-4,21.8-6.8c20-7.9,40.1-8.5,59.8,0.1
	c22.7,10,45,9.8,67.7,0c19.7-8.5,40-8.5,59.7,0.2c22.2,9.7,44,9.8,66.2,0.2c20.6-8.9,41.5-8.7,62.1,0.3c21.4,9.3,42.5,9.2,63.9,0
	c21.1-9.1,42.2-8.7,63.6-0.1c9.7,3.9,20.3,5.8,31.1,8.9c0,13.8,0,29,0,44.7c-10.2,0.5-19.6-2.3-29.1-5.6c-8.7-3.1-17.7-5.9-26.8-7.5
	c-12.8-2.2-25.3,0.2-37,5.6c-22.3,10.2-44.3,10.1-66.7,0.4c-20.8-9.1-41.7-8.9-62.4,0.5c-20.6,9.3-41.4,9.4-62,0.5
	c-22.5-9.8-44.6-9.8-67.1,0.3c-19.2,8.6-39.1,8.6-58.2,0.2c-23.6-10.3-46.6-10.8-69.9,0.3C97.2,319.8,87.8,321.5,77.7,321.1z"/>
<path d="M457.9,125.4c0.7-11.7,1.2-22.8,2.3-33.9c0.7-6.8,5.9-10.9,13.5-10.5c13.1,0.5,26.3,1.6,39.4,2.4c8.6,0.6,17.3,1.3,25.9,1.7
	c2.7,0.1,4.2,0.8,4.6,3.8c2,14.3,4.2,28.6,6.4,43.6C519.1,130.1,488.7,127.8,457.9,125.4z"/>
<path d="M317,84.1c0,16.9-13.7,30.6-30.5,30.6c-16.8,0-30.5-13.8-30.5-30.6c0-17,13.5-30.4,30.5-30.4C303.6,53.7,317,67.1,317,84.1z
	"/>
</svg>
