<?xml version="1.0" encoding="utf-8"?>
<!-- Generator: Adobe Illustrator 19.2.0, SVG Export Plug-In . SVG Version: 6.00 Build 0)  -->
<svg version="1.1" id="Capa_1" xmlns="http://www.w3.org/2000/svg" xmlns:xlink="http://www.w3.org/1999/xlink" x="0px" y="0px"
	 viewBox="0 0 720 661" style="enable-background:new 0 0 720 661;" xml:space="preserve">
<style type="text/css">
	.st0{fill:#FFFFFF;}
</style>
<path d="M296.1,567.3c-35.4-4.4-56.8-27.2-56.9-62.6c-0.1-23.6,2.4-47.2,3.8-70.8c0.1-1.8,0.6-3.6,1.2-5.3
	c15.9-44.1,31.3-88.5,54.9-129.4c4.4-7.6,9.4-14.9,14.1-22.4c6.1-9.7,15.4-14.2,26.4-14.8c20.1-1,40.3-2,60.4-2.1
	c39.5-0.3,79-0.3,118.5,0c14.8,0.1,29.6,1,44.4,2.1c10.4,0.8,19,5.2,25.2,14.2c18.6,26.9,32.9,55.9,44.7,86.2
	c7.6,19.4,14.6,38.9,22.2,58.3c5.2,13.5,5.8,27.7,6.6,41.8c0.9,16.6,1.5,33.3,0.3,49.9c-1.8,26.1-20.3,47.6-43.7,53
	c-4,0.9-8.2,1.3-12.6,2c0,1.9,0,3.8,0,5.8c-0.2,15.3-0.3,30.6-0.7,46c-0.2,7.4-3,10.9-10.4,11.7c-9.9,1.1-19.9,1.5-29.8,1.2
	c-6.6-0.3-8.3-3.2-8.6-9.9c-0.8-17-1.5-33.9-2.3-50.9c-0.1-1.5-0.3-2.9-0.4-4.8c-68.7,0-137.2,0-206.3,0c0,2.6,0,5.1,0,7.5
	c-0.4,15.7-0.7,31.3-1.1,47c-0.3,8.4-2.2,11.2-10.5,11.5c-9.8,0.3-19.6-0.5-29.3-1.7c-6.3-0.8-8.9-4.6-9.1-11.3
	c-0.4-15.5-0.5-31-0.8-46.5C296.1,571.2,296.1,569.4,296.1,567.3z M450.8,400C450.8,400.1,450.8,400.1,450.8,400
	c25.2,0.1,50.3,0.4,75.5,0c18.8-0.3,37.6-1.1,56.4-2.2c5.9-0.3,11.9-1.6,17.6-3.3c6.3-1.8,8.5-5.5,8-12c-0.2-2.3-0.3-4.7-1-6.9
	c-3.6-10-6.8-20.2-11.2-29.8c-7.6-16.8-15.7-33.4-24-49.8c-4.3-8.5-11.7-13.7-21.3-14.9c-10.1-1.2-20.2-2.3-30.3-2.4
	c-46.3-0.2-92.6-0.2-139,0c-9.3,0-18.6,1.2-27.9,2c-11.6,1-20.1,6.9-25.1,17.3c-9.4,19.5-18.6,39-27.4,58.8
	c-3.1,6.9-5.4,14.4-6.9,21.8c-2.3,11.2,0.7,15.6,12,17.3c13.8,2,27.8,3.8,41.7,4C382.1,400.4,416.4,400,450.8,400z M640.1,481.9
	c0-21.8-17.5-39.4-39.2-39.7c-21.8-0.2-39.8,17.7-39.9,39.6c0,21.9,17.9,39.8,39.8,39.6C622.7,521.3,640.1,503.8,640.1,481.9z
	 M261.7,482.2c0.1,21.8,17.7,39.3,39.5,39.3c21.9,0,39.8-18,39.6-39.8c-0.2-21.6-18.1-39.4-39.7-39.4
	C279.3,442.3,261.5,460.2,261.7,482.2z M450.8,514c18.5,0,37,0.4,55.5-0.2c5.7-0.2,11.9-2.1,16.8-5c7.3-4.3,7.4-13.8,0.2-18.2
	c-4.9-3-11.1-5.1-16.8-5.2c-37-0.4-74-0.4-110.9,0c-5.5,0.1-11.6,1.9-16.4,4.8c-8,4.7-7.8,14.5,0.2,19.1c4.7,2.7,10.6,4.4,16,4.5
	C413.8,514.3,432.3,514,450.8,514z M451.1,446.6c0,0.1,0,0.1,0,0.2c-19.5,0-39-0.4-58.4,0.3c-5.1,0.2-10.7,2.6-15,5.6
	c-5.9,4.1-5.6,11.4-0.3,16.4c4.6,4.3,10.3,6,16.5,6c38.1,0.1,76.2,0.2,114.4-0.2c4.6,0,9.6-1.7,13.6-4c9-5.1,9-15.5-0.2-20.2
	c-5.1-2.6-11.4-3.8-17.1-4C486.7,446.3,468.9,446.6,451.1,446.6z"/>
<path d="M702.8,118.5c0,15.8,0,31.4,0,47.5c-13.4-4.1-26.5-8.2-39.7-12.3c-97.8-30.5-195.6-61-293.5-91.4c-2.8-0.9-6.3-0.9-9.1,0
	C251.2,96.2,142,130.3,32.7,164.3c-1.7,0.5-3.5,1-5.7,1.7c0-15.4-0.1-30.4,0.2-45.3c0-1.2,2.5-3,4.2-3.6c22.3-7.1,44.8-14.1,67.1-21
	c87.3-27.2,174.7-54.5,262.1-81.6c2.6-0.8,6-0.8,8.6,0c109.6,34,219.2,68.2,328.7,102.4C699.5,117.4,701.1,117.9,702.8,118.5z"/>
<path d="M152.5,384.2c-60.9,0-110.3-49.4-110.4-110.3c0-61,49.9-110.9,110.7-110.5c61,0.4,110.2,49.8,110.1,110.6
	C262.8,334.9,213.3,384.3,152.5,384.2z M152.2,358.6c47.4,0.1,86.2-38.5,86.5-86c0.3-47.4-38.5-86.5-85.8-86.6
	c-48-0.1-86.8,38.2-86.9,85.9C65.9,319.7,104.4,358.5,152.2,358.6z"/>
<path class="st0" d="M450.8,400c-34.3,0-68.7,0.4-103-0.2c-13.9-0.2-27.9-2-41.7-4c-11.3-1.7-14.2-6.1-12-17.3
	c1.5-7.4,3.8-14.9,6.9-21.8c8.8-19.7,18-39.3,27.4-58.8c5-10.4,13.5-16.3,25.1-17.3c9.3-0.8,18.6-1.9,27.9-2
	c46.3-0.2,92.6-0.2,139,0c10.1,0.1,20.3,1.1,30.3,2.4c9.5,1.2,17,6.3,21.3,14.9c8.3,16.5,16.5,33,24,49.8
	c4.4,9.7,7.6,19.8,11.2,29.8c0.8,2.2,0.9,4.6,1,6.9c0.5,6.5-1.7,10.2-8,12c-5.7,1.6-11.7,2.9-17.6,3.3c-18.8,1-37.6,1.9-56.4,2.2
	C501.1,400.4,475.9,400.1,450.8,400C450.8,400.1,450.8,400.1,450.8,400z"/>
<path class="st0" d="M640.1,481.9c0,21.8-17.4,39.3-39.3,39.5c-21.9,0.2-39.8-17.7-39.8-39.6c0-21.9,18.1-39.8,39.9-39.6
	C622.6,442.5,640.1,460.2,640.1,481.9z"/>
<path class="st0" d="M261.7,482.2c-0.1-21.9,17.6-39.9,39.5-39.9c21.6,0,39.5,17.7,39.7,39.4c0.2,21.8-17.8,39.8-39.6,39.8
	C279.4,521.4,261.8,504,261.7,482.2z"/>
<path class="st0" d="M450.8,514c-18.5,0-37,0.3-55.5-0.2c-5.4-0.2-11.3-1.9-16-4.5c-8-4.6-8.2-14.4-0.2-19.1
	c4.8-2.8,10.9-4.7,16.4-4.8c37-0.4,74-0.4,110.9,0c5.7,0.1,11.9,2.2,16.8,5.2c7.2,4.4,7.1,13.9-0.2,18.2c-4.9,2.9-11.1,4.8-16.8,5
	C487.8,514.3,469.3,514,450.8,514z"/>
<path class="st0" d="M451.1,446.6c17.8,0,35.6-0.3,53.4,0.2c5.8,0.2,12.1,1.4,17.1,4c9.2,4.7,9.1,15.1,0.2,20.2c-4,2.3-9,3.9-13.6,4
	c-38.1,0.3-76.2,0.2-114.4,0.2c-6.2,0-11.9-1.7-16.5-6c-5.3-5-5.6-12.3,0.3-16.4c4.3-3,9.9-5.4,15-5.6c19.5-0.6,38.9-0.3,58.4-0.3
	C451.1,446.7,451.1,446.6,451.1,446.6z"/>
<path class="st0" d="M152.2,358.6c-47.8-0.1-86.3-38.9-86.2-86.7c0.1-47.7,38.8-86,86.9-85.9c47.3,0.1,86.1,39.2,85.8,86.6
	C238.4,320.1,199.6,358.6,152.2,358.6z M140.9,331.1c0-6.3,0-12.2,0-18.2c0-6.1,0-12.2,0-18.9c4.1,0,7.7,0.1,11.3,0
	c5.8-0.2,11.7-0.2,17.4-1.1c17-2.7,26.1-14.6,25.6-33.1c-0.5-17.3-9.7-27.9-27.2-28.9c-18.9-1-37.9-0.5-56.9-0.6
	c-0.3,0-0.6,0.3-1.2,0.6c0,33.2,0,66.5,0,100.1C120.3,331.1,130.3,331.1,140.9,331.1z"/>
<path d="M140.9,331.1c-10.6,0-20.6,0-31,0c0-33.6,0-66.9,0-100.1c0.6-0.3,0.9-0.6,1.2-0.6c19,0.1,38-0.5,56.9,0.6
	c17.6,1,26.8,11.6,27.2,28.9c0.5,18.4-8.6,30.4-25.6,33.1c-5.7,0.9-11.6,0.8-17.4,1.1c-3.6,0.1-7.2,0-11.3,0c0,6.6,0,12.7,0,18.9
	C140.9,318.9,140.9,324.8,140.9,331.1z M141.1,274c5.7-0.5,11.2-0.6,16.4-1.7c4.9-1,7.6-5.5,7.4-10.5c-0.2-5.1-3.1-9.1-8.2-9.9
	c-5.1-0.8-10.4-0.8-15.7-1.2C141.1,258.8,141.1,265.9,141.1,274z"/>
<path class="st0" d="M141.1,274c0-8.1,0-15.2,0-23.2c5.3,0.4,10.5,0.4,15.7,1.2c5,0.8,7.9,4.8,8.2,9.9c0.2,4.9-2.5,9.4-7.4,10.5
	C152.3,273.3,146.8,273.4,141.1,274z"/>
</svg>
