<?xml version="1.0" encoding="utf-8"?>
<!-- Generator: Adobe Illustrator 19.2.0, SVG Export Plug-In . SVG Version: 6.00 Build 0)  -->
<svg version="1.1" id="Capa_1" xmlns="http://www.w3.org/2000/svg" xmlns:xlink="http://www.w3.org/1999/xlink" x="0px" y="0px"
	 viewBox="0 0 489 543" style="enable-background:new 0 0 489 543;" xml:space="preserve">
<path d="M238,530c-7.1-1.9-14.3-3.8-21.4-5.8c-16.9-4.7-32.5-12.6-47.4-21.7c-20.2-12.3-37.5-28-53.2-45.4
	c-13.3-14.7-24.9-30.7-34-48.4c-2.7-5.2-5.9-9.2-12.1-11.6C48.9,388.9,37,372.8,33.2,351c-2.7-15.2-0.8-30,5.9-44.1
	c6.7-14,18.1-23.1,32.2-28.7c3.1-1.2,3.9-2.6,3.8-5.6c-0.1-12.5,0.1-25-0.1-37.5c-0.1-3.4,1.1-5.3,3.8-7.1
	c21.5-14.1,45.1-23.4,70.1-28.9c15.9-3.4,32.1-5.8,48.3-8c9.8-1.3,19.7-1.5,29.6-2.1c7.9-0.5,15.9-1.3,23.8-0.9
	c17.8,0.9,35.5,2.2,53.2,3.9c25.8,2.5,50.9,8.3,74.8,18.2c12.4,5.1,24.1,12.3,35.9,18.8c1.4,0.8,2.5,3.3,2.5,5c0.2,13,0.2,26,0.1,39
	c0,2.7,0.7,4,3.4,5c23.2,9.3,36,26.3,38.8,51.3c1.6,14-0.5,27-6.2,39.6c-6.4,14.1-17.7,23.2-31.7,28.5c-5.3,2-8.1,5.2-10.2,9.5
	c-14.2,27.8-33.9,51.3-56.9,72.1c-20.9,18.9-44.5,33.7-71.4,42.8c-9.4,3.2-19.2,5.4-28.8,8.1C248.7,530,243.3,530,238,530z
	 M374,270.2c-2,0.9-3.5,1.7-5.2,2.4c-7.4,3.1-14.6,6.5-22.2,9c-23.1,7.7-46.9,11.6-71.1,13.2c-14.6,1-29.4,0.7-44.1,0
	c-15.3-0.7-30.5-2.3-45.7-3.9c-15.8-1.7-31-5.9-45.8-11.5c-7.3-2.8-14.4-5.8-22-8.9c0,4.8-0.6,9.6,0.1,14.1c1.7,11.4-2,20-11.1,27.2
	c-3.8,3-7.4,4.7-12.1,5.4c-4,0.6-8.3,2-11.7,4.3c-9,6.2-8.9,17.4-5.7,26c2.9,7.9,10.3,10.8,18.5,11.6c6.3,0.6,11.7,1.3,15,9.2
	c13.3,31.7,33.1,58.8,59.6,81c14.3,11.9,29.4,22.5,47,28.8c9.6,3.4,19.8,7.8,29.5,7.3c11.2-0.6,22.6-5,33-9.6
	c27.6-12.3,49.9-31.6,69.1-54.6c14.1-16.9,24.8-36,33.5-56.2c0.9-2,3.3-3.9,5.4-4.7c2.9-1,6.3-0.4,9.2-1.3c4.1-1.2,8.8-2.3,11.9-5
	c9.8-8.4,9.6-24.2-0.4-32.3c-3.3-2.7-8.2-3.6-12.6-4.5c-3.9-0.8-7.5-1.4-10.4-4.7c-2.8-3.3-6.3-6-9-9.3c-1.4-1.7-2.6-4.2-2.7-6.4
	C373.8,288.1,374,279.4,374,270.2z"/>
<path d="M255,18c9.9,4.1,20.2,7.3,29.5,12.4c18.3,10,36,21.1,54.1,31.6c11.7,6.8,23.4,13.6,35.2,20.3c21.9,12.5,44.8,22.8,68.5,31.2
	c12.5,4.4,25.6,7.4,39.2,11.3c-15.3,31.9-40.3,56-63.4,80.9c-9.4-5.8-18.2-11.7-27.4-16.7c-16.1-8.6-33.5-13.5-51.3-16.9
	c-16.2-3.1-32.6-5.7-49-6.9c-17.5-1.4-35.2-1.1-52.8-1.2c-11.9,0-23.9,0-35.8,1.1c-25.9,2.4-51.6,6-76.4,14.2
	c-14.5,4.7-28.4,10.6-40.8,19.6c-3.2,2.3-6.2,4.8-9.6,7.4c-24.7-24.6-49.1-49.1-64.5-81.7c9.8-2.7,19.1-5,28.2-7.7
	c24.5-7.3,47.9-17.2,70.2-29.5c25.3-13.9,49.8-29.3,74.9-43.5c14.3-8.1,29.2-15.3,43.9-22.7c2.9-1.5,6.3-2.2,9.4-3.3
	C243,18,249,18,255,18z M246.1,145c5.8,0.4,10.5-2.4,14.7-6.3c8.7-8.2,14.1-18.5,17.9-29.5c3-8.7,5.5-17.6-5.6-23.8
	c-9.2-5.1-18.5-10.3-28.9-9c-8,1-16.1,4.2-23.3,7.9c-10.1,5.2-11.5,9.5-8.7,20.4c2.8,11.1,8,21.1,15.2,29.9
	C231.9,140.3,237.5,145.4,246.1,145z"/>
<path d="M267.6,337.6c-14.6,0-28.8,0-43.3,0c-1.7,9.7-5.5,19-12.2,26.9c-7.4,8.6-17.1,13.2-27.9,15.4c-19.4,3.9-36.6-0.5-50.2-15.4
	c-10.2-11.2-16.7-24.2-16-39.9c0.2-5.3,0.2-10.6,1.1-15.7c0.9-4.8,3.5-8.9,9-9.8c7.7-1.3,15.4-3.4,23.1-3.8
	c12.6-0.6,25.3-0.4,38-0.1c5.9,0.2,11.8,1.1,17.5,2.3c9.3,2,15.9,7.3,17.6,17.9c14.4,0,28.8,0,42.9,0c4.9-15.9,12.3-17.9,26.1-19.1
	c16.3-1.4,32.8-1.2,49.3-1.1c6.4,0.1,12.9,1.7,19.3,2.9c8.1,1.5,11.5,7.4,12,14.7c1,13.9,0.4,27.7-7.3,40.1
	c-12.6,20.4-29.3,30.7-52.8,27.9C288.5,377.7,273.6,365.3,267.6,337.6z"/>
</svg>
