<?xml version="1.0" encoding="utf-8"?>
<!-- Generator: Adobe Illustrator 19.2.0, SVG Export Plug-In . SVG Version: 6.00 Build 0)  -->
<svg version="1.1" id="Capa_1" xmlns="http://www.w3.org/2000/svg" xmlns:xlink="http://www.w3.org/1999/xlink" x="0px" y="0px"
	 viewBox="0 0 189.4 189.9" style="enable-background:new 0 0 189.4 189.9;" xml:space="preserve">
<path d="M94.2,189.9c-23.3,0-46.6,0-70,0c-3.3,0-6.7-0.3-9.9-0.8c-7.6-1.4-12-6.1-13.5-13.5c-0.6-2.9-0.7-6-0.7-8.9
	c0-47.5,0-94.9,0-142.4c0-1.2,0-2.3,0.1-3.5C0.9,7,7.6,0.1,21.3,0.1c49-0.1,97.9-0.1,146.9,0.1c13.7,0.1,20,6.4,21,20.1
	c0.3,3.8,0.1,7.7,0.1,11.5c0,44.5,0,89,0,133.4c0,3-0.1,6-0.5,9c-1.1,8.5-5.9,13.6-14.3,15c-3.1,0.5-6.3,0.7-9.4,0.8
	C141.5,190,117.8,189.9,94.2,189.9z M116.1,113c0,2.1,0,3.9,0,5.6c0,14.3,0,28.6,0,42.9c0,1.7,0,3.4,0.3,5c0.8,4.3,4.5,7.2,8.5,7
	c4-0.2,7.3-3.4,7.7-7.8c0.2-1.5,0.1-3,0.1-4.5c0-41.8,0-83.5,0-125.3c0-1.7,0.1-3.3-0.1-5c-0.8-6.8-5.8-11.3-12.4-11.4
	c-6.6-0.1-11.6,4.4-12.5,11.2c-0.2,1.1-0.2,2.3-0.2,3.5c0,24.8,0,49.6,0,74.4c0,1.3,0.3,2.5,0.4,4
	C110.7,112.8,113.1,112.9,116.1,113z M62,80.7c0,2.1,0,3.9,0,5.7c0,24.8,0,49.6,0,74.4c0,2.3,0.2,4.7,0.7,6.9
	c0.8,3.7,3.4,5.7,7.1,5.9c3.9,0.2,6.9-1.6,8-5.4c0.7-2.2,0.8-4.6,0.8-6.9c0.1-24.5,0-49,0-73.4c0-2.5,0-5,0-7.3
	c7.9-2.8,10.4-5.6,10.5-12.4c0.1-14.5,0.2-29-0.1-43.5c0-1.7-2.1-3.4-3.2-5.1c-0.9,1.7-2.4,3.4-2.4,5.2c-0.2,9.5-0.2,19-0.1,28.5
	c0,3.5-1.4,4.4-5,3.1c0-6.9,0-13.9,0-20.8c0-4.3,0.1-8.7-0.2-13c-0.1-1-1.7-2-2.6-3c-0.9,1-2.2,1.8-2.6,3c-0.5,1.3-0.2,3-0.2,4.5
	c0,9.8,0,19.6,0,29.5c-1.9,0-3.3,0-5,0c0-2.1,0-3.9,0-5.8c0-9,0.1-18-0.1-27c0-1.4-1.8-2.8-2.8-4.2c-0.9,1.3-2.5,2.6-2.7,4
	c-0.4,3.3-0.1,6.6-0.1,10c0,7.6,0,15.2,0,22.9c-3.5,1-4.7,0.1-4.6-3.2c0.1-9.5,0.2-19-0.1-28.5c-0.1-1.8-1.7-4.9-2.9-5.1
	c-3.5-0.4-2.9,2.8-2.9,5c0,13.8,0,27.6,0,41.5C51.4,75.4,53.1,77.7,62,80.7z"/>
</svg>
