<?xml version="1.0" encoding="utf-8"?>
<!-- Generator: Adobe Illustrator 19.2.0, SVG Export Plug-In . SVG Version: 6.00 Build 0)  -->
<svg version="1.1" id="Capa_1" xmlns="http://www.w3.org/2000/svg" xmlns:xlink="http://www.w3.org/1999/xlink" x="0px" y="0px"
	 viewBox="0 0 256 256" style="enable-background:new 0 0 256 256;" xml:space="preserve">
<path d="M121,0c5.3,0,10.7,0,16,0c0.9,0.3,1.8,0.7,2.8,0.9c14,2.3,26.2,8.4,36.4,18.2c3,2.9,5.3,6.6,10.7,5.3
	c1.5-0.4,3.7,1.1,5.4,2.2c15.3,9.6,27.8,22.1,37.3,37.5c1.3,2.1,2.3,5.1,2,7.4c-0.4,2.9,0.8,4.2,2.6,5.7c9.6,8.2,16,18.5,19.5,30.7
	c0.9,3,1.6,6,2.3,9c0,5.3,0,10.7,0,16c-0.2,0.6-0.6,1.2-0.7,1.8c-2.5,16.8-10.3,30.8-23,42.1c-0.8,0.8-1.5,2.7-1.1,3.7
	c1.5,4.3,0,7.8-2.3,11.3c-8.9,13.7-20.2,25.1-33.6,34.5c-5,3.5-10,6-16.1,2.7c-9,12.2-20.3,20.5-34.7,24.6c-3.2,0.9-6.4,1.6-9.6,2.4
	c-5.3,0-10.7,0-16,0c-0.9-0.3-1.8-0.8-2.8-0.9c-13.3-2.1-25-7.8-35-16.8c-4.1-3.6-7-9-13.7-8.6c-0.8,0-1.7-0.9-2.6-1.4
	c-15.2-9.6-27.6-21.9-37.1-37.1c-1.2-1.9-1.6-4.3-2.5-6.4c-0.8-1.8-1.4-4-2.8-5.2c-9.1-8-15.8-17.5-19.4-29.1
	C1.9,146.7,1,142.8,0,139c0-5.7,0-11.3,0-17c0.8-3.2,1.6-6.3,2.5-9.5c4.1-14.7,12.4-26.7,24.4-36.1c-2.6-5.1-1.4-9.4,1.5-13.8
	c9.1-13.8,20.4-25.3,34.1-34.6c4.8-3.2,9.5-5.4,15-2.5C90,11.9,98.6,6,111.4,2.4C114.6,1.5,117.8,0.8,121,0z M128.6,50.7
	c-7.4,1.4-14.7,2.5-22,4.2c-1.5,0.4-2.7,2.6-3.9,4.1c-2.1,2.5-3.5,5.9-6.1,7.4c-12.3,7.1-21.9,16.5-28.9,28.9
	c-1.5,2.6-4.6,4.8-7.5,5.9c-2.5,1-3.7,2-4.4,4.5c-4.2,14.6-4.2,29.2,0.3,43.8c0.5,1.6,2.6,2.7,4.1,3.9c2.5,2,5.9,3.5,7.4,6.1
	c7,12.4,16.5,21.9,28.9,29c2.7,1.5,4.2,5.2,6.3,7.8c1.1,1.4,2.2,3.3,3.6,3.8c14.7,4.6,29.5,4.6,44.2,0c1.6-0.5,2.8-2.6,4-4.1
	c2-2.5,3.4-6,6-7.4c12.4-7,21.9-16.5,29-28.9c1.5-2.7,5.2-4.2,7.8-6.3c1.4-1.1,3.3-2.2,3.8-3.6c4.6-14.7,4.7-29.5,0.1-44.2
	c-0.5-1.6-2.6-2.8-4.1-4c-2.6-2.2-6.1-3.7-7.7-6.5c-7-12.2-16.4-21.6-28.6-28.5c-2.6-1.5-4-4.9-6.1-7.3c-1.3-1.6-2.6-3.9-4.3-4.3
	C143.2,53.1,136,52,128.6,50.7z M58,163.7c-7.7,7.1-14.9,13.8-22.1,20.5c9.3,14.9,21,26.8,35.9,35.8c6.9-7.4,13.5-14.6,20.4-22.1
	C77.3,189.9,66.2,178.8,58,163.7z M58.1,91.1c8-15.2,19.4-26.3,34.1-34.3c-7-7.6-13.7-14.8-20.4-22.1C56.8,44,45,55.8,35.9,70.6
	C43.3,77.4,50.3,84,58.1,91.1z M164.9,197.9c7.1,7.7,13.8,14.9,20.5,22.1c14.9-9.2,26.8-21,35.9-35.9c-7.5-6.9-14.6-13.5-22.1-20.5
	C191.1,178.6,180,189.8,164.9,197.9z M221.3,70.6c-9.4-14.9-21-26.7-35.9-35.8c-6.8,7.3-13.4,14.5-20.5,22.1
	c14.9,8,26.2,19.4,34.3,34.2C206.8,84,213.9,77.5,221.3,70.6z M23.6,88.5c-24,22.4-23.2,66.8,3.3,85.6
	C14.7,146.1,13.8,117.9,23.6,88.5z M80.5,228.5c25.9,29.7,69.7,25.5,86.5,4.1c-14.4,4.8-28.6,7.1-43.2,6.5
	C109.2,238.4,95.2,235,80.5,228.5z M233.5,166.4c22.4-22.4,21.3-63.5-1.8-82.2C242.4,111.4,242.9,138.4,233.5,166.4z M172.1,24.3
	C150.6,0.7,109,0.5,89.8,22.4C117.6,13,144.7,13.6,172.1,24.3z"/>
</svg>
