<?xml version="1.0" encoding="utf-8"?>
<!-- Generator: Adobe Illustrator 19.2.0, SVG Export Plug-In . SVG Version: 6.00 Build 0)  -->
<svg version="1.1" id="Capa_1" xmlns="http://www.w3.org/2000/svg" xmlns:xlink="http://www.w3.org/1999/xlink" x="0px" y="0px"
	 viewBox="0 0 385 385" style="enable-background:new 0 0 385 385;" xml:space="preserve">
<path d="M385,386.5c-127.3,0-254.6,0-382,0c0-13.4,0-26.8,0-40.8c5.6,0,10,0,14.6,0c0.2-1.5,0.4-2.5,0.4-3.4
	c0-57.8,0.1-115.6-0.1-173.4c0-2.3-0.8-5-2.3-6.7c-7.1-8.3-9.3-18-9.3-28.6C6.4,102.3,6.5,71,6.4,39.7C6.4,27,6.2,14.2,6,1.5
	c125.8,0,251.6,0,377.5,0c-0.2,3-0.7,5.9-0.7,8.9c0,40.8,0.1,81.6,0.2,122.4c0,9.9-1.8,19.2-7.8,27.6c-2.4,3.4-4.2,8-4.3,12
	c-0.3,55.1-0.2,110.1-0.2,165.2c0,2.6,0.3,5.3,0.4,8.1c5,0.2,9.1,0.4,13.9,0.6C385,360.1,385,373.3,385,386.5z M229,285.1
	c0-29.8,0-59.2,0-88.9c-59.4,0-118.4,0-177.5,0c0,29.9,0,59.3,0,88.9C110.9,285.1,169.6,285.1,229,285.1z M259.7,340.7
	c25.6,0,50.7,0,76,0c0-48.5,0-96.4,0-144.4c-25.6,0-50.7,0-76,0C259.7,244.8,259.7,292.7,259.7,340.7z M19.7,62.1
	c-0.4,1.7-0.9,2.6-0.9,3.5c0,24-0.4,48,0.1,72c0.3,14.4,11,24.6,24.1,24.5c12.9-0.1,23.5-10,23.9-24c0.6-23.7,0.3-47.5,0.1-71.2
	c0-1.6-2.5-4.5-4-4.5C48.6,62,34.2,62.1,19.7,62.1z M80.1,62.5c-0.2,1.6-0.5,2.8-0.5,4c0,23.8-0.2,47.5,0.1,71.3
	c0.2,14,10.9,24.5,24.2,24.4c13-0.2,23.6-10.5,23.8-24.1c0.3-24.3,0.1-48.5,0-72.8c0-0.9-0.5-1.8-0.7-2.7
	C111.2,62.5,95.8,62.5,80.1,62.5z M261.6,62.5c0,25.1-0.1,49.4,0,73.6c0.1,15.2,10.3,26.1,24.1,26.1c13.9,0,24-10.9,24.1-26.2
	c0.1-22.5,0-45,0-67.6c0-1.9-0.3-3.8-0.5-6C293.4,62.5,277.9,62.5,261.6,62.5z M140,62.5c0,24.7-0.1,48.7,0,72.6
	c0.1,15.8,10.1,26.9,24.1,27c14,0.1,24.1-10.8,24.1-26.7c0.1-22.3,0-44.5,0-66.8c0-1.9-0.3-3.8-0.5-6.1
	C171.9,62.5,156.5,62.5,140,62.5z M322,62.5c0,24.7-0.1,48.7,0,72.7c0.1,15.8,10.1,26.9,24.2,27c14,0.1,24-10.9,24.1-26.8
	c0.1-22.3,0-44.5,0-66.8c0-1.9-0.4-3.8-0.6-6.1C354,62.5,338.6,62.5,322,62.5z M249,62.1c-15.3,0-29.8-0.1-44.2,0.2
	c-1.4,0-3.8,3.1-3.8,4.7c-0.2,24-0.5,48,0.2,72c0.4,13.4,11.2,23.1,23.9,23.1c12.3,0,23.4-9.3,23.7-22.4
	C249.5,114.3,249,88.8,249,62.1z"/>
</svg>
