<?xml version="1.0" encoding="utf-8"?>
<!-- Generator: Adobe Illustrator 19.2.0, SVG Export Plug-In . SVG Version: 6.00 Build 0)  -->
<svg version="1.1" id="Capa_1" xmlns="http://www.w3.org/2000/svg" xmlns:xlink="http://www.w3.org/1999/xlink" x="0px" y="0px"
	 viewBox="0 0 133.9 133.9" style="enable-background:new 0 0 133.9 133.9;" xml:space="preserve">
<style type="text/css">
	.st0{fill:#FFFFFF;}
</style>
<path class="st0" d="M134.5,75.3c0,19.7,0,39.4,0,59.1c-44.6,0-89.3,0-133.9,0c0-6.4,0-12.9,0-19.3c2.8,4.6,5.8,5,9.6,1.2
	c2.5-2.5,5.1-5,7.5-7.6c1.5-1.6,3-2.2,5.2-2.2c24.3,0.1,48.6,0,72.9,0.1c2.8,0,5-0.7,7.1-2.6c9.5-8.3,19.1-16.5,28.6-24.8
	C132.6,78.1,133.5,76.6,134.5,75.3z"/>
<path d="M134.5,75.3c-1,1.3-1.8,2.8-3,3.8c-9.5,8.3-19.1,16.5-28.6,24.8c-2.1,1.8-4.4,2.6-7.1,2.6c-24.3-0.1-48.6,0-72.9-0.1
	c-2.2,0-3.8,0.6-5.2,2.2c-2.4,2.6-5,5.1-7.5,7.6c-3.8,3.8-6.8,3.4-9.6-1.2c0-0.9,0-1.7,0-2.6c4.7-4.9,9.2-9.9,14.1-14.6
	c1.1-1.1,3.4-1.3,5.1-1.3c15-0.1,30-0.1,45-0.1c1,0,2,0,3.2,0c0-17.2,0-34.2,0-51.4c-4.3,0-8.5,0-12.9,0c0.9-7.4,2.3-14.4,5.4-20.9
	c1.9-4,4.3-7.9,9.4-7.9c5.2,0,7.6,3.8,9.5,7.8c3.2,6.5,4.6,13.5,5.5,20.9c-4.4,0-8.6,0-12.9,0c0,17.3,0,34.2,0,51.5
	c1.2,0,2.3,0,3.4,0c5,0,10-0.3,14.9,0.1c4.2,0.3,7.4-1,10.5-3.8c7.9-7.2,16-14,24.1-20.9c4.1-3.5,6.4-3.3,9.7,0.9
	C134.5,73.6,134.5,74.5,134.5,75.3z"/>
<path d="M114.5,45c-4.4,0-8.6-0.1-12.8,0c-1.7,0.1-2.2-0.7-2.6-2.2c-2-7.2-5.2-13.8-10.6-19.2c-3.5-3.4-7.6-5.7-13-7.1
	C95,17.8,109.9,30.4,114.5,45z"/>
<path d="M39.9,44.9c-4.9,0-9.7,0-14.4,0c3.8-14.5,20.2-27.3,37.5-28.1C49.2,21.5,43.6,32.3,39.9,44.9z"/>
</svg>
