<?xml version="1.0" encoding="utf-8"?>
<!-- Generator: Adobe Illustrator 19.2.0, SVG Export Plug-In . SVG Version: 6.00 Build 0)  -->
<svg version="1.1" id="Capa_1" xmlns="http://www.w3.org/2000/svg" xmlns:xlink="http://www.w3.org/1999/xlink" x="0px" y="0px"
	 viewBox="0 0 289 289" style="enable-background:new 0 0 289 289;" xml:space="preserve">
<style type="text/css">
	.st0{fill:#FFFFFF;}
</style>
<path class="st0" d="M289.2,7.9c-0.7-2.1-1.5-4.2-3.4-5.6c-1-0.8-2.2-1.4-3.3-2.1c2.2,0,4.5,0,6.7,0C289.2,2.8,289.2,5.4,289.2,7.9z
	"/>
<path class="st0" d="M0.2,281.5c0.7,2.1,1.5,4.2,3.4,5.6c1,0.8,2.2,1.4,3.3,2.1c-2.2,0-4.5,0-6.7,0C0.2,286.6,0.2,284.1,0.2,281.5z"
	/>
<path class="st0" d="M282.5,289.2c1.1-0.7,2.3-1.3,3.3-2.1c1.8-1.4,2.6-3.5,3.4-5.6c0,2.6,0,5.1,0,7.7
	C287,289.2,284.7,289.2,282.5,289.2z"/>
<path d="M143.8,187.5c-9.1,0-17.9,0-26.9,0c0,0.5,0,1,0,1.5c0,20.2,0,40.4,0,60.6c0,2.7-1.4,4.6-3.3,6.3c-0.5,0.5-1.1,0.9-1.7,1.2
	c-3.1,1.9-6.8,1-9.4-1.2c-1.4-1.2-2.2-2.8-3-4.3c-0.2-0.3-0.1-0.8-0.1-1.3c0-20.4,0-40.8,0-61.2c0-0.5,0-0.9,0-1.5
	c-2.2,0-4.4,0-6.7,0c0,0.5,0,1,0,1.4c0,19.9,0,39.8,0,59.8c0,4.3-2.1,7.1-5.8,8.7c-3.3,1.4-6,0.3-8.6-1.8c-2.3-1.9-3-4.6-3-7.4
	c-0.1-19.8,0-39.5,0-59.3c0-0.5,0-0.9,0-1.5c-9.1,0-18,0-27.2,0c0.6-1.9,1.2-3.7,1.8-5.4c3-8.6,6-17.2,9.1-25.9
	c1.9-5.3,3.8-10.7,5.7-16c3-8.5,6-17,8.9-25.5c1.3-3.8,2.6-7.6,3.9-11.4c0.3-1-0.4-2.4-1.7-2.9c-1-0.4-1.9,0.1-2.3,1
	c-0.9,2.2-1.8,4.5-2.6,6.7c-3.1,8.8-6.1,17.6-9.2,26.3c-1.6,4.7-3.3,9.3-5,14c-0.4,1.2-1,2.3-2,3.3c-1.4,1.4-3,2.2-4.9,2.6
	c-1.7,0.3-3.2,0-4.6-0.9c-3.1-1.8-4.6-4.6-4.2-8.2c0.2-1.7,0.9-3.3,1.5-4.9c3-8.6,6-17.2,9-25.8c2.3-6.5,4.6-13,7-19.5
	c1.7-4.5,3.4-9,5.3-13.4c0.5-1.1,1.2-2.1,2.1-3c1.7-1.7,3.2-3.7,5.5-4.8C73,73,75,72.5,77,72.5c12.2-0.1,24.3-0.1,36.5,0
	c3.4,0,6.4,1.5,9.2,3.5c1.2,0.9,2.5,1.8,3.6,2.9c1.1,1.2,2.1,2.6,2.8,4.1c1.1,2.4,2,5,2.9,7.5c3.2,9.1,6.4,18.3,9.6,27.4
	c2.3,6.5,4.6,13,6.9,19.4c0.6,1.7,1.4,3.3,1.8,5.1c0.6,2.5,1.1,5.1,0.1,7.7c-0.7,1.7-2.3,2.3-3.6,3.2c-2.7,1.9-5.4,1.3-7.9-0.2
	c-1.5-0.9-2.4-2.4-3-4c-2.3-6.2-4.5-12.5-6.8-18.7c-3.4-9.2-6.7-18.5-10.1-27.7c-0.1-0.4-0.3-0.7-0.5-1.1c-0.6-0.9-2-1.7-2.7-1.5
	c-0.9,0.3-1.7,2.2-1.3,3.3c1.5,4.6,3,9.2,4.6,13.8c1.6,4.5,3.2,9,4.8,13.5c3.1,8.9,6.2,17.8,9.4,26.8c2.1,6.1,4.3,12.2,6.5,18.3
	C141,179.6,142.4,183.4,143.8,187.5z"/>
<path d="M182.6,175.7c0-24.8,0-49.6,0-74.4c0-0.4,0-0.9-0.1-1.3c-0.4-1.7-1.3-2.4-3-2.3c-1.2,0.1-2.1,1.2-2.2,2.7c0,0.3,0,0.6,0,1
	c0,17.3,0,34.6,0,52c0,2.8-2.2,5.9-4.8,6.8c-0.8,0.3-1.5,0.6-2.3,0.7c-3.8,0.4-6.1-1.8-7.8-4.8c-0.4-0.7-0.6-1.6-0.6-2.5
	c0-20.1,0-40.2,0-60.4c0-2.1,0.8-4,1.8-5.8c0.3-0.5,0.4-1,0.7-1.5c0.8-1.3,1.6-2.6,2.6-3.8c1.9-2.4,4.4-4.3,7-5.9
	c2.2-1.3,4.8-1.9,7.2-2.6c1-0.3,2.2-0.3,3.3-0.3c14,0,28.1,0,42.1,0c2.6,0,4.9,0.8,7.3,1.8c4.2,1.8,7.5,4.8,10.5,8.1
	c0.8,0.9,1,2.2,1.7,3.2c1.8,3,2.4,6.3,2.4,9.8c-0.1,18.7,0,37.4-0.1,56.2c0,1-0.4,2-0.7,2.9c-0.9,2.5-2.7,4.3-5.2,5
	c-1.4,0.4-3.1,0.4-4.5-0.1c-2.6-0.9-4.6-2.7-5.3-5.6c-0.1-0.5-0.2-0.9-0.2-1.4c0-17.6,0-35.2,0-52.8c0-2.1-1-3.1-3-3
	c-1.1,0.1-2.3,1.2-2.3,2.3c0,8.4,0,16.9,0,25.3c0,9.6,0.2,19.2,0.2,28.8c0,3.1-0.2,6.2-0.2,9.3c0,28.6,0,57.3,0,85.9
	c0,4.3-2.1,6.7-5.9,8.3c-4.7,2-10.4-0.9-12-4.9c-0.6-1.5-1.1-3-1.1-4.6c0-27.8,0-55.6,0-83.4c0-1.9-0.6-2.7-2.1-3.2
	c-2.2-0.6-3.5,0.4-4.2,1.7c-0.2,0.4-0.2,0.9-0.2,1.4c0,27.7,0,55.4,0,83.2c0,1.5-0.2,3-0.7,4.4c-1,2.7-3.1,4.5-5.8,5.6
	c-3.7,1.5-7.2,0.5-9.9-2.1c-1.4-1.4-2.5-3.3-2.5-5.8C182.7,225.1,182.6,200.4,182.6,175.7z"/>
<path d="M224.2,50.5c0.5,9.7-9,18.5-18.1,18.3c-10.2-0.2-19.5-7.6-18.8-19.4c0.6-9.9,8-17.2,18.7-17.4
	C215.5,31.8,224.4,40.6,224.2,50.5z"/>
<path d="M96.8,68.2c-9.8-0.1-17.1-7.8-18-16c-0.6-5,0.6-9.6,3.6-13.6c3-4.1,7.2-6.7,12.4-7.1c12.7-0.9,19.6,7.9,20.5,16
	C116.7,60.7,105.9,67.9,96.8,68.2z"/>
</svg>
