<?xml version="1.0" encoding="utf-8"?>
<!-- Generator: Adobe Illustrator 19.2.0, SVG Export Plug-In . SVG Version: 6.00 Build 0)  -->
<svg version="1.1" id="Capa_1" xmlns="http://www.w3.org/2000/svg" xmlns:xlink="http://www.w3.org/1999/xlink" x="0px" y="0px"
	 viewBox="0 0 47.6 29" style="enable-background:new 0 0 47.6 29;" xml:space="preserve">
<path d="M37.9,21.5c-2.2-0.5-3.5,0.4-4.9,2.1c-5.5,6.3-15.3,5.8-20.4-0.9c-0.4-0.5-0.8-0.7-1.4-0.7c-1.1,0-2.3,0-3.4,0
	c-3.7-0.1-6.1-2.3-6.5-6c-0.2-1.9-0.2-3.8,0.8-5.5c1.1-1.8,2.6-2.8,4.7-3C7.5,7.4,8,7.4,8.5,7.4c2.3,0.3,3.9-0.4,5.5-2.2
	c5.1-5.5,14.3-5,19.2,0.9c0.6,0.7,1.1,0.9,1.9,0.9c1.5-0.1,3,0,4.5,0c3.8,0,6.3,2.2,6.6,6c0.2,1.8,0.2,3.6-0.7,5.3
	c-1.1,2-2.8,3.1-5.1,3.3C39.7,21.6,38.8,21.5,37.9,21.5z M24.4,20.7c0.2,0.1,0.3,0.1,0.4,0.1c5.2,0,10.3,0.1,15.5,0
	c2.7,0,4.8-1.8,5.3-4.3c0.2-1.3,0.2-2.6,0.1-3.9c-0.1-2.6-2.2-4.8-4.8-4.9c-3.1-0.1-6.1-0.2-9.2,0c-2.6,0.1-4.6,2.1-4.9,4.7
	c-0.2,1.6-0.2,3.3-0.1,4.9c0.1,1.4-0.5,2.3-1.7,3C24.9,20.4,24.7,20.5,24.4,20.7z M16.3,19.1c0.5-0.2,1.2-0.3,1.3-0.6
	c0.8-2.6,1.5-5.3,2.3-8c-0.5,0-0.8,0-1.3,0c-0.5,2.1-1.1,4.2-1.7,6.4c-0.5-2.3-1-4.4-1.5-6.3c-1.1-0.4-1.4,0.1-1.6,0.9
	c-0.4,1.7-0.9,3.4-1.3,5.2c-0.1,0-0.1,0-0.2,0c-0.5-2-1-4.1-1.4-6.1c-0.5,0-0.8,0-1.3,0c0.7,2.8,1.4,5.6,2.1,8.3c0.5,0,0.8,0,1.3,0
	c0.6-2.1,1.1-4.1,1.7-6.4C15.3,14.8,15.8,16.8,16.3,19.1z M20.6,12.9c0,2,0,4,0,5.9c0.4,0,0.8,0,1.1,0c0-2,0-4,0-5.9
	C21.3,12.9,21,12.9,20.6,12.9z M21.2,12.3c0.3-0.5,0.7-0.8,0.6-1c-0.1-0.3-0.5-0.5-0.7-0.8c-0.2,0.3-0.6,0.5-0.6,0.8
	C20.5,11.6,20.9,11.8,21.2,12.3z"/>
<path d="M34,10.8c0,0.3,0,0.6,0,0.9c-1,0-2,0-3.1,0c0,0.8,0,1.6,0,2.5c0.7,0,1.4,0,2.1,0c0.7,0,0.9,0.2,0.7,1c-0.9,0-1.8,0-2.9,0
	c0,1.2,0,2.3,0,3.5c-0.4,0-0.8,0-1.2,0c0-2.6,0-5.2,0-7.9C31.2,10.8,32.6,10.8,34,10.8z"/>
<path d="M35.1,12.9c0.4,0,0.7,0,1.1,0c0,1.9,0,3.8,0,5.7c-0.3,0-0.7,0-1.1,0.1C35.1,16.8,35.1,14.9,35.1,12.9z"/>
<path d="M35.7,10.4c0.3,0.5,0.7,0.8,0.6,1c0,0.3-0.4,0.7-0.6,0.7c-0.2,0-0.6-0.4-0.7-0.6C35,11.2,35.3,10.9,35.7,10.4z"/>
</svg>
