<?xml version="1.0" encoding="utf-8"?>
<!-- Generator: Adobe Illustrator 19.2.0, SVG Export Plug-In . SVG Version: 6.00 Build 0)  -->
<svg version="1.1" id="Capa_1" xmlns="http://www.w3.org/2000/svg" xmlns:xlink="http://www.w3.org/1999/xlink" x="0px" y="0px"
	 viewBox="0 0 339.5 223.2" style="enable-background:new 0 0 339.5 223.2;" xml:space="preserve">
<style type="text/css">
	.st0{fill:#FFFFFF;}
</style>
<path d="M164,67.4c-10.1,3.1-19.9,6-29.7,9c-16,4.8-32,9.7-48,14.6c-1.1,0.3-2,0.8-2.8-0.7c-6.2-11.7-16.4-15-28.8-13.9
	c-6,0.5-11.9,1.2-17.9,1.8c-1,0.1-2.1,0.1-3.2,0c-6.4-0.4-9.9-3.7-10-10.1c-0.1-4.3,0.5-8.7,0.7-13.1c0.9-17.2-4-32.1-17.6-43.4
	C4.8,9.8,2.5,8.4,0,6.7c5.3-0.5,10.2-0.9,15-1.3C57.2,2.2,99.4,0,141.6,0c37.1,0,74.3,0.5,111.4,1.6c24.2,0.7,48.3,2.7,72.4,4.2
	c3,0.2,6,0.6,8.9,0.9c0.9,0.1,1.9,0.4,2.8,0.8c2.8,1.4,3.2,4.3,0.8,6.3c-1.1,0.9-2.6,1.6-4.1,2C297.4,27,260.9,38,224.4,49.1
	c-0.8,0.3-1.7,0.6-2.7,0.9c1.5,5.3,3,10.6,4.5,15.8c7.4,25.8,14.8,51.5,22.3,77.3c0.3,1,1.1,2.1,2,2.6c3.8,2,5.8,5.5,5,9.3
	c-0.9,4.1-4.1,6.8-8.5,6.9c-6,0.1-12,0-18-0.1c-5.8,0-11.7-0.2-17.5-0.1c-3.4,0-6.1-1.1-8.3-3.7c-2.8-3.3-5.7-6.4-8.5-9.7
	c-0.9-1-1.6-1.2-2.9-0.9c-25.3,6.2-50.5,12.4-75.8,18.7c-1.2,0.3-2.5,1.2-3.4,2.1c-17.9,17.2-35.8,34.5-53.7,51.7
	c-6.4,6.2-16.5,3.4-18.6-5.1c-1-4.3,0.4-7.9,3.6-10.9c13.5-13,27-26.1,40.5-39.1c10.6-10.2,21.2-20.4,31.8-30.7
	c2.9-2.8,6.2-4.6,10.1-5.5c10.1-2.4,20.2-5,30.4-7.4c1.7-0.4,2.2-1.2,2.4-2.9c1.5-15.9,3.1-31.7,4.6-47.6
	C163.9,69.7,164,68.6,164,67.4z M214.1,52.2c-13.5,4.1-26.6,8.1-39.7,12c-1.6,0.5-2.2,1.1-2.3,2.8c-1.2,12.6-2.4,25.1-3.7,37.7
	c-0.4,4.6-0.9,9.1-1.4,14c3.5-0.8,6.6-1.6,9.7-2.3c5.7-1.3,10.8,0,15.1,3.8c1.6,1.4,3.2,3,4.6,4.6c5.5,6.1,10.9,12.4,16.5,18.5
	c0.8,0.9,2.3,1.5,3.5,1.6c6.6,0.2,13.3,0.1,19.9,0.1c1.4,0,2.8,0,4.5,0C231.9,113.9,223,83.2,214.1,52.2z"/>
<path class="st0" d="M214.1,52.2c8.9,31,17.8,61.7,26.7,92.8c-1.7,0-3.1,0-4.5,0c-6.6,0-13.3,0-19.9-0.1c-1.2,0-2.7-0.7-3.5-1.6
	c-5.6-6.1-11-12.3-16.5-18.5c-1.5-1.6-3-3.2-4.6-4.6c-4.4-3.9-9.4-5.1-15.1-3.8c-3.1,0.7-6.2,1.5-9.7,2.3c0.5-4.9,0.9-9.4,1.4-14
	c1.2-12.6,2.5-25.1,3.7-37.7c0.2-1.7,0.8-2.3,2.3-2.8C187.5,60.3,200.6,56.3,214.1,52.2z M218.1,100.8c0-9.3-7.4-16.9-16.7-16.9
	c-9.4-0.1-17,7.4-17,16.8c0,9.4,7.3,16.8,16.7,16.9C210.4,117.8,218,110.3,218.1,100.8z"/>
<path d="M218.1,100.8c0,9.4-7.7,16.9-17,16.8c-9.4-0.1-16.7-7.6-16.7-16.9c0-9.4,7.6-16.9,17-16.8C210.6,84,218.1,91.6,218.1,100.8z
	"/>
</svg>
