<?xml version="1.0" encoding="utf-8"?>
<!-- Generator: Adobe Illustrator 19.2.0, SVG Export Plug-In . SVG Version: 6.00 Build 0)  -->
<svg version="1.1" id="Capa_1" xmlns="http://www.w3.org/2000/svg" xmlns:xlink="http://www.w3.org/1999/xlink" x="0px" y="0px"
	 viewBox="0 0 339.5 223.2" style="enable-background:new 0 0 339.5 223.2;" xml:space="preserve">
<path d="M17.6,202.2c0.1-4.3,0.8-8,1.7-11.7c4.9-19,11.8-37.3,21.4-54.5c2.8-5.1,6.4-9.6,11.3-12.9c3.1-2.1,6.5-3.6,9.9-5.2
	c2.8-1.3,5.6-2.6,8.3-4.1c2.6-1.4,4.6-3.5,6.2-6c0.8-1.2,1-2.4,0.6-3.7c-0.6-1.7-1.2-3.4-1.9-5.1c-0.8-1.9-1.7-3.8-2.5-5.7
	c-0.2-0.4-0.1-1,0-1.3c1.5-3.2,3.7-5.5,7.4-6.1c1.8-0.3,3.4,0.3,4.8,1.3c1.1,0.7,2.1,1.5,3.3,2c3.1,1.4,6,0.8,8.4-1.6
	c2.1-2.1,3.4-4.7,4.4-7.5c1.7-4.6,2.6-9.5,2.9-14.4c0.4-5.7,2.8-10.6,6.5-14.8c4.1-4.7,9-8.3,14.2-11.5c7.7-4.7,15.8-8.5,24.1-11.9
	c9.8-4,19.7-7.9,29.6-11.8c3.1-1.2,6.4-2.2,9.7-2.6c0.7-0.1,1.5,0,2.3,0.1c1.1,0.2,1.6,0.9,1.2,1.9c-0.4,1.1-0.8,2.2-1.5,3.1
	c-1.8,2.4-3.6,4.8-5.7,7c-6.3,6.6-12.7,13.1-19,19.7c-5.7,6.1-11.4,12.3-16.9,18.6c-1.6,1.8-2.7,3.9-4,5.9
	c-5.2,8.3-9.8,16.9-12.8,26.2c-1.8,5.6-3,11.3-3.1,17.2c0,1,0.2,2,0.5,2.9c2.3,6.1,6.4,10.9,11.6,14.8c4.1,3.1,8.2,6.2,11.6,10.1
	c1.4,1.6,2.9,3.3,3.9,5.1c2.9,5.1,0.3,10.4-5.5,11.4c-3.2,0.6-6.1-0.1-8.6-2.3c-0.6-0.6-1.4-0.9-2.1-1.4c-3.6-2.3-6.6-5.1-9.7-8
	c-2.9-2.7-5.8-5.5-8.9-8c-3.6-2.9-7.9-4.4-12.6-4c-3.6,0.3-6.9,1.4-10.1,2.9c-2.1,1-4.1,2.2-6,3.4c-4.6,2.8-9.1,5.6-13.7,8.4
	c-8.4,5.1-15.5,11.7-21.7,19.2c-7.3,8.8-14.7,17.6-22,26.4c-3.1,3.7-6.2,7.3-9.8,10.4c-1.1,0.9-2.2,1.7-3.5,2.4
	c-2,1-3.5,0.2-4.1-1.9C17.7,203.7,17.6,202.7,17.6,202.2z"/>
<path d="M239.5,194.6c-1.7-1.9-3.4-3.6-4.9-5.4c-5.8-6.7-10.5-14.3-14.4-22.3c-2.3-4.6-4.7-9.1-6.5-13.9c-2.6-7-5.3-14.1-6.1-21.6
	c-0.1-1.4-0.2-2.9,0-4.4c0.1-1,0.6-2.1,1.2-2.9c1.1-1.4,2.4-2.7,3.8-3.9c2-1.8,4.2-3.3,6.2-5.1c1.4-1.2,2.4-2.6,3.1-4.3
	c0.1-0.2,0.2-0.4,0.4-0.6c1.9-2,2.2-4.3,1.1-6.8c-1.4-3.2-3.8-5.5-6.9-7c-1.3-0.6-1.9-2-1.4-3.5c0.5-1.4,1.4-2.5,2.5-3.5
	c2.7-2.4,5.7-4,9.4-4.4c4.9-0.5,8.8-4.4,9.6-9.5c0.3-2.2,0.2-4.3-0.7-6.5c-1.6-4-1.5-8.1,0.3-12c1.1-2.3,2.8-4.1,5.1-5.3
	c11.4-6.2,23.5-10.2,36.1-13.2c9.4-2.2,19-3.8,28.6-5.1c2.9-0.4,5.9-0.8,8.8-1.1c1-0.1,1.3,0.1,1.2,1.1c-0.1,0.8-0.4,1.8-0.9,2.4
	c-1.3,1.4-2.7,2.9-4.3,4c-3.9,2.6-7.9,5.1-11.9,7.5c-5.7,3.5-11.5,6.8-16.8,10.9c-4.3,3.4-8.3,7.1-11.1,11.9c-2.7,4.6-4.3,9.6-4,15
	c0.4,7.3,4,12.7,10.3,16.3c1.1,0.6,2.5,0.8,3.8,1.1c4,1.1,8,2.3,11.6,4.4c0.8,0.5,1.8,0.6,2.7,0.9c2.8,0.9,5.6,2,7.9,4
	c1,0.9,2,2,2.7,3.2c1.4,2.5,0.9,5.3-1.3,7.1c-1.7,1.5-3.8,2.2-6,2.3c-2,0.2-4-0.1-5.9-0.7c-3.1-0.9-6.2-1.8-9.3-2.7
	c-5.3-1.6-10.5-3.2-15.7-4.8c-4.4-1.4-7.7-0.4-10.2,3.5c-1.3,2-2.3,4.3-3.4,6.5c-1,2-1.8,4-3.5,5.5c-0.4,0.4-0.7,1-1,1.6
	c-2.7,4.4-5.9,8.4-9.2,12.4c-3.9,4.5-5.4,9.7-5.6,15.6c-0.2,4.8,1.2,9.2,2.5,13.7c1,3.7,2,7.5,2.9,11.2c0.5,2.2,0.6,4.5,0,6.7
	C240,193.4,239.8,193.9,239.5,194.6z"/>
</svg>
