<?xml version="1.0" encoding="utf-8"?>
<!-- Generator: Adobe Illustrator 19.2.0, SVG Export Plug-In . SVG Version: 6.00 Build 0)  -->
<svg version="1.1" id="Capa_1" xmlns="http://www.w3.org/2000/svg" xmlns:xlink="http://www.w3.org/1999/xlink" x="0px" y="0px"
	 viewBox="0 0 265.7 188.9" style="enable-background:new 0 0 265.7 188.9;" xml:space="preserve">
<style type="text/css">
	.st0{fill:#FFFFFF;}
</style>
<path d="M182,121.6c1.2,1.4,2.3,3.6,3.7,4c5.9,1.5,11.9,2.6,17.9,3.6c2.1,0.4,5.1-1.1,5.5,2.4c0.4,3.5-2.2,4.1-4.8,4.4
	c-3.3,0.3-6.6,0.5-10.1,0.8c0.1,5-3.4,6.4-7.2,6.1c-4.8-0.5-10.1-1.1-14.2-3.4c-6.2-3.4-11.7-4.1-17.8-0.5
	c-5.8,3.5-11.6,3.3-17.6,0.3c-6.3-3.2-12.5-5.1-19.2-0.4c-1.8,1.2-5.8,0.8-7.9-0.4c-5.1-2.8-9.8-2.5-14.8-0.3
	c-1.8,0.8-3.9,1.7-5.7,1.5c-2.4-0.3-5.8-0.9-6.8-2.6c-1-1.6,0.2-4.8,0.7-7.3c0.2-0.9,1.1-1.6,1.8-2.6c-25.4,5-43.7-11.7-41-38
	c-13.4,4.9-25.2,2.9-34.9-8c10.9-11.8,25.9-16.6,34.7-11.6c2.5-8.3,11.9-16.1,25.9-20.9c1.7,6.6,4,13,4.9,19.6
	c1.1,8.4-3.2,13.8-11.7,15.1c-3.9,0.6-4.6,2.3-4.2,5.6c1.2,11.4,6.8,15.8,18.6,14.6c8.8-0.9,15.8-5.1,21.6-11.4
	c4.1-4.4,7.9-9,11.6-13.8c16.1-21.1,38.3-27,63.4-25.1c10.6,0.8,20.4,4.3,29.4,10.2c19.8,12.9,20.1,41.4,12.2,56
	c-2.3,4.3-5.5,6.4-10.4,6.2c-7.7-0.3-15.3-0.5-21.8-5.6C183.1,120.8,182.5,121.2,182,121.6z M163.3,75.8c2.4-0.4,4.9-0.3,6.6-1.3
	c1.9-1.1,4.3-3.1,4.6-5c0.2-1.4-2.5-4.4-4.2-4.6c-4.6-0.6-9.5-0.4-14.1,0.2c-1.5,0.2-3.6,3-3.6,4.5c0,1.6,2.1,3.6,3.8,4.5
	C158.5,75.3,161.1,75.4,163.3,75.8z M193.3,103c0-3.5-3-6.5-6.1-6.4c-3.1,0.1-6.3,3.5-6,6.8c0.3,3.6,2.7,5.4,6,5.3
	C190.9,108.7,193,106.4,193.3,103z"/>
<path d="M163.6,47.9c4-4.8,7.8-9.8,12.2-14.1c1.4-1.4,5.3-1.7,7.1-0.7c1.6,0.8,2.3,4,2.8,6.3c0.1,0.6-2.1,2.6-2.6,2.4
	c-7.6-2.8-12.2,2-17.1,6.2c-0.4,0.3-0.8,0.6-1.2,0.9C164.4,48.5,164,48.2,163.6,47.9z"/>
<path d="M158.2,49.8c-2.5-1.1-5-2.6-7.7-3.3c-2.3-0.6-4.9-0.4-7.3-0.2c-1.9,0.1-3.8,0.6-5.7,0.9c0.1-2.4-0.7-5.4,0.5-6.9
	c1.3-1.6,4.5-2.8,6.6-2.4c2.7,0.5,5.2,2.7,7.6,4.3c2.7,1.8,5.2,3.9,7.8,5.9C159.4,48.7,158.8,49.2,158.2,49.8z"/>
<path class="st0" d="M163.3,75.8c-2.2-0.5-4.8-0.5-7-1.6c-1.7-0.9-3.8-2.9-3.8-4.5c0-1.5,2.1-4.3,3.6-4.5c4.6-0.7,9.4-0.8,14.1-0.2
	c1.7,0.2,4.4,3.2,4.2,4.6c-0.3,1.9-2.6,3.9-4.6,5C168.2,75.6,165.8,75.4,163.3,75.8z"/>
<path class="st0" d="M193.3,103c-0.3,3.4-2.4,5.7-6.1,5.8c-3.4,0.1-5.8-1.7-6-5.3c-0.3-3.3,2.9-6.7,6-6.8
	C190.3,96.5,193.3,99.5,193.3,103z"/>
</svg>
