<?xml version="1.0" encoding="utf-8"?>
<!-- Generator: Adobe Illustrator 19.2.0, SVG Export Plug-In . SVG Version: 6.00 Build 0)  -->
<svg version="1.1" id="Capa_1" xmlns="http://www.w3.org/2000/svg" xmlns:xlink="http://www.w3.org/1999/xlink" x="0px" y="0px"
	 viewBox="0 0 265.7 188.9" style="enable-background:new 0 0 265.7 188.9;" xml:space="preserve">
<style type="text/css">
	.st0{fill:none;stroke:#000000;stroke-width:2;stroke-linecap:round;stroke-linejoin:round;stroke-miterlimit:10;}
</style>
<path d="M29.8,80c3.5,0,7.2-0.6,10.6,0.2c7.2,1.7,14.3,4.1,21.6,6.3c0-9.6,0.1-18.5-0.1-27.4c0-1.4-1.2-3-2.2-4.2
	c-4.3-4.7-8.7-9.2-13.1-13.8c-1-1.1-2.2-2.2-2.6-3.6c-0.4-1.4,0-3,0-4.6c1.5,0.1,3.6-0.5,4.5,0.3c3.8,3.2,7.2,6.8,10.8,10.3
	c1.4,1.4,2.7,2.9,4.3,4.5c1.3-0.7,2.6-1.4,4.5-2.5c-7.2-2.1-10-6.6-7.6-13.1c2.9-7.8,14.4-7,16.8,1c1.7,5.7-1.3,9.2-6,11.8
	c0.2,0.4,0.4,0.8,0.6,1.3c1.9-0.7,4.1-0.9,5.6-2.1c4.1-3.2,7.7-7,11.8-9.9c1.5-1.1,4.2-0.7,6.3-1c-0.5,2.1-0.4,4.8-1.7,6.2
	c-3.9,4.1-8.6,7.4-12.5,11.5c-1.6,1.6-2.6,4.1-2.9,6.3c-0.5,3.1,0.1,6.3-0.2,9.5c-0.6,6.8-0.2,13,7.3,16c0.3,0.1,0.7,0.4,0.7,0.6
	c1.8,6.9,7.6,5.7,12.4,5.9c8.3,0.3,16.6,0.1,24.1,0.1c-0.2-8.4-0.1-17-0.6-25.5c-0.1-2.4-1.2-5.1-2.8-7c-3.7-4.5-8-8.5-12-12.7
	c-1.3-1.4-2.7-3-3.5-4.8c-0.5-1.2-0.4-3.4,0.3-4.1c0.7-0.7,2.9-0.5,4.1,0.1c1.6,0.8,2.9,2.2,4.2,3.4c3.9,3.6,7.8,7.2,12.2,11.3
	c0.4-0.3,1.6-1.1,2.8-1.9c-6.5-3.4-8.8-6.9-7.6-11.6c1.1-4.1,3.7-6.6,8.1-6.9c4.3-0.3,7.5,1.6,9.1,5.5c1.9,4.5,0.3,8.2-4.8,13.4
	c1.5-0.4,3.4-0.3,4.6-1.1c3.7-2.9,7-6.1,10.6-9.1c1.3-1.1,2.7-2.1,4.2-2.6c1.2-0.4,3.3-0.3,3.9,0.5c0.7,0.8,0.6,3.1-0.2,4
	c-2.1,2.6-4.2,5.3-7,7c-8.5,5.3-11.7,12.5-10,22.2c0.2,1.3,0.2,2.7,0,4c-0.8,5,2.2,7.5,5.3,11.1c5.3,6.1,11.1,5,17.4,4.5
	c6.3-0.5,12.6-0.7,19.6-1c0-8.4,0.1-16.5-0.1-24.6c0-1.1-1.2-2.3-2-3.2c-4.5-4.9-9.2-9.7-13.7-14.5c-1-1.1-2.1-2.3-2.5-3.6
	c-0.4-1.2-0.5-3.3,0.2-4c0.7-0.7,2.9-0.7,4-0.1c1.7,0.8,3.3,2.3,4.7,3.7c3,2.9,5.9,5.9,8.6,9.1c2.2,2.6,4,2.5,6,0.1
	c-2-1.5-4.5-2.5-5.8-4.5c-1.2-1.9-1.7-4.7-1.4-7c0.6-4.5,3.8-7,8.3-7.2c4.5-0.2,7.6,2.1,9,6.4c1.5,4.6-0.1,7.8-5.5,12.9
	c2-0.7,4.3-0.9,5.8-2.1c3.8-2.9,7.1-6.6,11.1-9.3c1.8-1.2,4.7-0.9,7.1-1.3c-0.7,2.2-0.8,5-2.3,6.5c-3.8,4-8.3,7.2-12.1,11.1
	c-1.6,1.7-2.8,4.4-3,6.7c-0.4,5.3-0.2,10.7-0.1,16c0,4.8,2.8,7.2,7.6,6.6c3.6-0.4,7.4-0.6,10.8-1.8c11.5-3.9,23.1-0.2,35-1.1
	c0.1,1.5,0.3,2.9,0.4,4.1c-0.6,0.4-0.9,0.7-1.1,0.7c-6.3-0.5-10.2,1.7-14.3,7.3c-3.4,4.8-10.6,7-16.3,9.8c-3.4,1.7-7.3,2.3-11,3.4
	c-1.6,4.5,2.3,12.1-5.9,12.9c-6.7,0.6-5-6.1-6.5-10.3c-3.6,0.4-7.2,1-10.8,1.2c-10.6,0.5-21.3,0.6-31.9,1.2
	c-1.6,0.1-3.5,1.2-4.5,2.4c-3.1,4.3-7,4.4-10,0.1c-0.9-1.2-2.6-2.5-3.9-2.5c-14.5-0.2-29-0.3-43.5-0.2c-1.3,0-2.8,0.7-3.8,1.5
	c-3.2,2.6-5.8,2.4-8.7-0.7c-1.2-1.3-3-2.3-4.7-2.8c-7.7-2.1-15.5-3.7-23.1-6.1c-8.5-2.7-16.1-6.9-21-14.9
	C29.8,86.6,29.8,83.3,29.8,80z"/>
<path class="st0" d="M220.3,161.5c-8.4-4.9-16.8-9.9-25.4-14.9c-8.1,4.4-16.7,8.8-25.1,13.5c-2.9,1.6-5.1,1.6-8.1-0.4
	c-7.1-4.7-14.6-8.7-22.2-13c-9.2,4.9-18.7,10-28.5,15.3c-8.6-5.1-17.2-10.1-25.9-15.3c-8.7,4.6-17.5,9.3-26.3,13.9
	c-0.8,0.4-1.7,0.7-2.5,1"/>
<path class="st0" d="M248.3,85.5c-3.3,0.2-6.7,0.3-10,0.5"/>
<path class="st0" d="M69.8,48c0-1.8,0-3.7,0-5.5"/>
<path class="st0" d="M221.3,141.5c-7.8-5-15.6-10.1-23.6-14.9c-1.2-0.7-3.8,0.1-5.4,0.9c-8.4,4.4-16.7,9-25.4,13.8
	c-8.6-5.1-17.3-10.3-26.3-15.6c-9.4,5-18.9,10.1-28.5,15.3c-8.5-5-17.1-10-26.1-15.3c-9.5,5.2-19.1,10.5-28.6,15.8"/>
<path class="st0" d="M187.8,48c0,1.8,0,3.7,0,5.5"/>
</svg>
