<?xml version="1.0" encoding="utf-8"?>
<!-- Generator: Adobe Illustrator 19.2.0, SVG Export Plug-In . SVG Version: 6.00 Build 0)  -->
<svg version="1.1" id="Capa_1" xmlns="http://www.w3.org/2000/svg" xmlns:xlink="http://www.w3.org/1999/xlink" x="0px" y="0px"
	 viewBox="0 0 265.7 188.9" style="enable-background:new 0 0 265.7 188.9;" xml:space="preserve">
<path d="M262.8,138c-3,6.4-5.2,13.2-9,19c-11.8,17.9-34.1,26-54.7,20.7c-21-5.3-36.2-22.9-38.6-44.6c-2.3-21,8.8-41.4,27.8-51.1
	c1-0.5,2-1,3.5-1.8c-1-4-2-8-3.2-12.6c-8.6,10-16.8,19.5-25,29c-9.4,11-18.6,22.1-28.2,32.9c-1.6,1.8-4.7,3.1-7.2,3.3
	c-4.8,0.5-9.6,0.3-14.5,0.1c-3-0.1-4.5,0.3-5.1,4.1c-4.1,22.5-22.1,39.3-44.3,41.9c-22.3,2.6-43.7-8.9-52.9-29.6
	c-8.5-19.2-6.4-38,7.1-54.3c13.3-16,30.8-21.3,51.1-17.3c2.1,0.4,4.1,1,6.5,1.6c3.6-7.2,7.2-14.3,10.7-21.5c0.4-0.9,0.4-2.3,0-3.2
	c-2.6-5.4-5.3-10.7-8.1-16.3c-3.2,0.9-6.1,1.8-9.1,2.5c-3.3,0.7-5.6-0.7-6.2-4.1c-1.6-8.9,0.5-11.9,8.3-11.8
	c10.5,0.2,21-0.1,31.5,0.2c2.1,0.1,4.1,1.8,6.1,2.7c-1.5,1.9-2.7,4.9-4.7,5.5c-4.5,1.5-9.3,1.9-14.5,2.9c2.2,4.4,4.3,8.9,6.7,13.2
	c0.4,0.8,1.8,1.4,2.8,1.4c28.3,0.1,56.6,0.1,85.3,0.1c-1-6.2-1.8-12.1-3.1-17.8c-0.3-1.1-2.5-2.4-3.9-2.5
	c-5.1-0.5-10.4,0.2-15.4-0.8c-3.7-0.8-7.4-2.9-10.1-5.5c-1.4-1.3-1.6-5.5-0.5-7.4c1.6-2.8,4.5-2,7.4-0.5c3.2,1.7,6.9,3,10.5,3.5
	c4.8,0.6,9.7,0.3,14.5,0.1c4.9-0.3,6.9,2.3,7.7,6.6c2.6,13.9,5.3,27.7,8.1,41.6c0.6,2.9,1.5,5.7,2.3,8.9c9.6-0.9,19-0.8,28,2.9
	c15.9,6.4,26.1,17.8,31,34.1c0.4,1.4,1.1,2.7,1.7,4C262.8,124.7,262.8,131.4,262.8,138z M194.3,91.3c-20.2,9.5-28.9,32.9-19.8,53
	c8.9,19.9,32.8,29.7,52.2,21.3c21.3-9.2,31.2-32.7,22.5-53.2c-7.6-17.9-29.4-29.8-44.1-23.8c1.8,6,3.5,12.1,5.4,18.1
	c1.9,6.2,4.1,12.3,6,18.5c1,3.4,0.4,6.6-3.4,7.7c-3.4,1-5.7-0.9-6.8-4.2c-0.2-0.8-0.5-1.6-0.8-2.4C201.8,114.6,198.1,103,194.3,91.3
	z M97.9,133c-12.5,0-24.9,0-37.4,0c-7.4,0-9.4-3.1-6.2-9.7c4.4-9,8.9-17.9,13.4-26.8c1.1-2.3,2.2-4.6,3.4-7
	c-16.7-5.7-34.7-0.1-45.1,13.6c-10.7,14.1-11.4,32.7-1.8,47.1c9.9,14.8,28.2,21.6,45,16.7C84.7,162.5,97.2,147.8,97.9,133z
	 M179.2,61.8c-26.1,0-50.9,0-76.4,0c9.5,19,18.8,37.5,28.2,56.3C147.1,99.3,162.8,80.9,179.2,61.8z M86,84.3
	c13.2,10.7,18.9,18.8,21.8,30.9c1.9,7.7,1.9,7.7,10,7.4c0.8,0,1.6-0.2,3-0.5c-8.9-17.8-17.7-35.3-26.9-53.7
	C91,74.4,88.5,79.3,86,84.3z M98.2,122.3c-1.7-12.1-7.5-20.9-17.2-27.9c-4.7,9.5-9.1,18.4-13.8,27.9
	C77.9,122.3,87.6,122.3,98.2,122.3z"/>
</svg>
