<?xml version="1.0" encoding="utf-8"?>
<!-- Generator: Adobe Illustrator 19.2.0, SVG Export Plug-In . SVG Version: 6.00 Build 0)  -->
<svg version="1.1" id="Capa_1" xmlns="http://www.w3.org/2000/svg" xmlns:xlink="http://www.w3.org/1999/xlink" x="0px" y="0px"
	 viewBox="0 0 266.7 256" style="enable-background:new 0 0 266.7 256;" xml:space="preserve">
<style type="text/css">
	.st0{fill:#FFFFFF;}
</style>
<path d="M95.3,109.1c0-1.3,0-2.2,0-3.1c0.1-10.4-0.1-20.8,0.2-31.1c0.2-7.1,6.9-12.9,14.3-12.9c7.3,0,13.8,5.8,14.4,12.9
	c0.1,0.8,0.1,1.5,0.2,2.3c0.1,4.4,0.1,4.4,4.3,5.5c5.9,1.5,11.8,3,17.6,4.6c2.8,0.8,4.6,2.8,5,5.7c0.4,2.8-0.6,5.1-3,6.8
	c-1.9,1.3-4.1,1.3-6.3,0.8c-5.4-1.3-10.8-2.5-16.3-3.8c-0.3-0.1-0.7-0.1-1.2-0.2c0,4.2,0,8.2,0,12.6c1.6,0,3.1,0,4.7,0
	c4.9,0,9.9-0.1,14.8,0c1.6,0,2.6-0.5,3.7-1.6c18.5-19.2,37.1-38.4,55.6-57.6c0.6-0.6,1-1.4,1.4-2c0.2,0.2,0.4,0.3,0.7,0.5
	c-0.5,4.2-0.9,8.4-1.4,12.5c-0.3,1.9,0.1,3,1.8,4.1c9.3,6,18.5,12.2,27.7,18.4c4.3,2.9,5.7,8,3.7,12.5c-1.9,4.2-6.1,6.5-10.7,5.9
	c-0.8-0.1-1.7-0.2-2.1-0.3c-1.8,3.3-3.2,6.7-5.4,9.5c-6.5,8.3-15.2,11.3-25.5,9.5c-1.5-0.3-2.1,0-2.8,1.3
	c-6.8,14.1-13.8,28.1-20.6,42.2c-0.5,1-0.7,2.3-0.7,3.5c0,19.6,0,39.1,0,58.7c0,4.3-1.3,7.8-5.3,9.9c-5.6,2.9-12.4-0.2-13.7-6.4
	c-0.3-1.2-0.3-2.5-0.3-3.8c0-19.7,0-39.4,0-59.1c0-0.8,0-1.7,0-2.8c-1,0-1.7,0-2.5,0c-14.8,0-29.5,0-44.3,0c-1.6,0-2.5,0.5-3.3,1.9
	c-2.2,4-4.6,7.8-6.7,11.7c-0.4,0.8-0.6,2.1-0.2,2.8c5.9,14.2,11.8,28.4,17.8,42.5c2.3,5.6,0.4,11.1-4.8,13.3
	c-5.1,2.2-10.5-0.2-12.8-5.7c-6.6-15.6-13.3-31.3-19.9-46.9c-0.5-1.3-0.8-2.7-0.8-4.1c-0.1-4.3,0-8.7-0.5-13.1
	c-3,4.7-6,9.3-8.9,14.1c-0.4,0.6-0.3,1.6-0.3,2.5c0,14.4,0,28.8,0,43.2c0,3.2-0.6,6.1-3,8.3c-2.9,2.6-6.3,3.5-10,2
	c-3.8-1.5-5.8-4.3-6.2-8.3c-0.1-0.6,0-1.3,0-1.9c0-16.9,0-33.8,0-50.6c0-1.2,0.5-2.6,1.1-3.7c2.2-3.7,5.4-7.1,6.6-11
	c1.1-3.9,0.3-8.4,0.3-12.6c0-8.9,0-17.8,0-26.7c0-0.7,0-1.4,0-2c-0.2-0.1-0.3-0.1-0.5-0.2c-1.5,2.3-2.8,4.6-4.5,6.7
	c-2.5,3.1-3.3,6.5-3.2,10.6c0.3,9,0.1,17.9,0.1,26.9c0,0.8,0,1.5,0,2.4c-5.1,0-10,0-15.2,0c0-0.7,0-1.3,0-2c0-10.8,0-21.6,0-32.4
	c0-13,9.2-22.3,22.2-22.4c13.9-0.1,27.8,0,41.7,0C93.3,109.1,94.1,109.1,95.3,109.1z M194.2,115.1c10,3,22-4.1,24.2-14.8
	c-4.9-0.9-9.8-1.9-14.7-2.8c-0.3-0.1-0.8,0.3-1,0.6C199.9,103.7,197,109.4,194.2,115.1z"/>
<path d="M110.1,29.2c8,0,14.6,6.6,14.5,14.6c0,7.9-6.7,14.6-14.6,14.5c-7.9-0.1-14.4-6.6-14.5-14.5C95.5,35.8,102.1,29.2,110.1,29.2
	z"/>
<path class="st0" d="M194.2,115.1c2.9-5.7,5.7-11.3,8.6-17c0.2-0.3,0.7-0.6,1-0.6c4.9,0.9,9.8,1.9,14.7,2.8
	C216.2,111,204.2,118,194.2,115.1z"/>
</svg>
