<?xml version="1.0" encoding="utf-8"?>
<!-- Generator: Adobe Illustrator 19.2.0, SVG Export Plug-In . SVG Version: 6.00 Build 0)  -->
<svg version="1.1" id="Capa_1" xmlns="http://www.w3.org/2000/svg" xmlns:xlink="http://www.w3.org/1999/xlink" x="0px" y="0px"
	 viewBox="0 0 266.7 256" style="enable-background:new 0 0 266.7 256;" xml:space="preserve">
<path d="M149.7,64.2c2.2,9.5,4.3,18.7,6.5,28.4c-1.1-0.2-1.9-0.2-2.8-0.4c-4.9-1.5-9.8-3.1-14.6-4.8c-0.8-0.3-1.6-1.4-1.7-2.3
	c-0.9-4.9-1.5-9.9-2.3-15.2c-5.8,2.3-11.4,4.4-17.2,6.7c4.2,5.5,8.9,9.9,14.6,13.1c13.8,7.8,28.6,10.6,44.2,9.2
	c5.7-0.5,11.4-1.8,17.1-2.9c4.6-0.9,8.7,0.8,10.7,5.1c5.7,12.2,9.7,24.9,10.4,38.4c0.5,11.1-2.5,20.8-11.2,28.5
	c-9.4,8.3-19.6,15.3-30.4,21.5c-0.7,0.4-1.5,0.8-2.2,1.3c-0.1,0.1-0.2,0.3-0.4,0.5c4.8,4.2,9.5,8.4,14.8,13.1
	c-2.9,0.2-5.1,0.4-7.2,0.6c-15.6,1.3-30.8,5.1-45.9,9.2c-1.8,0.5-3.3,0.4-5.1-0.4c-26.3-11.6-49.1-28.1-68.8-48.9
	c-1.8-1.9-2.2-3.7-1.2-6.2c1.6-3.7,2.9-7.5,4.3-11.3c1.2-3,2-3.6,5.3-3.3c13,1.3,25.6,4.9,37.8,9.4c2.6,1,3.9,0.8,5.7-1.5
	c12.5-16,31.7-21.4,52.4-14.7c3.2,1,6.3,2.3,9.6,3.5c-0.3-7.8-1.6-15.1-4.5-22c-0.3-0.6-1.6-1.1-2.5-1.1c-12.3-0.8-24-3.7-35-9.5
	c-10.6-5.6-19.1-13.7-25.8-23.6c-1.3-2-2.4-2.2-4.4-1.3c-2.8,1.3-5.8,2.3-8.7,3.4c-3.2,1.2-5,0.9-6.3-1.1c-1.3-2.1-0.6-4,2.3-6.3
	c-7.5-15-15-30-22.5-45c0.3-0.2,0.5-0.4,0.7-0.5c4.9-1.8,4.9-1.8,7.2,2.8c6.4,12.7,12.7,25.4,19,38.1c0.4,0.8,0.8,1.6,1.4,2.6
	c1.9-0.7,3.7-1.3,5.5-2.1c0.5-0.2,1-1,1-1.5c0.1-5.1,6.1-7.7,10.4-5.4c2.3,1.3,4.1,1.1,6.3,0c1-0.5,2.2-0.9,3.6-1.4
	c-7.2-14.5-14.4-28.8-21.6-43.3c2-0.6,3.8-1.2,5.8-1.8c7.2,14.3,14.3,28.5,21.5,42.9c2.6-1,5.1-1.9,7.5-3c0.5-0.2,0.9-0.9,1.1-1.5
	c1.8-6.9,6.4-8.6,12.2-4.8c1,0.6,2.6,0.1,4.7,0.1c-7.2-14.4-14-28-20.9-41.8c1.6-0.5,3.1-1.2,4.6-1.4c0.7-0.1,1.8,0.9,2.2,1.7
	c6,11.9,12,23.9,18,35.8c0.4,0.9,0.9,1.8,1.4,2.8c0.7-0.2,1.4-0.4,2-0.5c2.3-0.6,4.3,0.3,5,2.3c0.8,2.1-0.1,4.2-2.3,5.2
	c-3.2,1.3-6.4,2.5-9.6,3.8C150.8,63.7,150.3,63.9,149.7,64.2z M125.7,162.3c6.9,4,13.5,7.8,20.1,11.6c2.7,1.6,5.4,4.4,8.1,4.5
	c2.8,0,5.7-2.6,8.4-4.2c4.8-2.8,9.6-5.8,14.8-9c-10.5-6.7-20.6-12.4-33-12.1C136.7,153.4,130.7,156.7,125.7,162.3z"/>
<path d="M240.5,238.5c-1.1,0.4-1.8,1-2.6,0.9c-0.8-0.1-1.5-0.7-2.2-1.2c-15.9-10-33.3-12.9-51.7-11.5c-14,1.1-27.2,5.7-40.6,9.5
	c-12.5,3.5-25.1,6.4-38.1,7.1c-26.3,1.4-48.4-6.8-64.6-28.4c-1.1-1.5-2.1-3-3-4.7c-0.3-0.7-0.1-1.7-0.2-2.5c0.9,0.1,1.9,0,2.6,0.4
	c4.8,3.2,9.3,7,14.4,9.8c20.1,11,41.6,13.7,64,8.8c13.4-2.9,26.7-6.5,40.2-9.5c12.3-2.7,24.7-4.2,37.3-3.3
	c17.1,1.3,31.8,7.5,42.5,21.4C239.2,236.2,239.6,237,240.5,238.5z"/>
<path d="M181.4,91.1c-9.8,0-17.9-8-17.9-17.7c-0.1-9.7,8.1-17.9,17.8-17.9c9.8,0,17.8,8.1,17.8,17.9C199.1,83,191,91,181.4,91.1z"/>
</svg>
