<?xml version="1.0" encoding="utf-8"?>
<!-- Generator: Adobe Illustrator 19.2.0, SVG Export Plug-In . SVG Version: 6.00 Build 0)  -->
<svg version="1.1" id="Capa_1" xmlns="http://www.w3.org/2000/svg" xmlns:xlink="http://www.w3.org/1999/xlink" x="0px" y="0px"
	 viewBox="0 0 266.7 256" style="enable-background:new 0 0 266.7 256;" xml:space="preserve">
<path d="M118.7,169.3c-3.9,0-7.4-0.1-10.9,0c-7.6,0.2-15.2,1-20.3-6.7c-4.1-6.1-11.4-9.3-13.6-17.6c-1.6-5.9-6.4-10.9-10-16.2
	c-11.9-17.4-24.1-34.5-35.8-52c-1.4-2.1-1-5.9-0.4-8.7c4-16.9,15-28.8,28.9-38.1c23.1-15.4,49.2-20.4,76.5-19.7
	c30.5,0.8,59.1,8,83.2,27.8c10.6,8.7,19.2,19,23,32.5c0.6,2.3-0.3,5.8-1.7,7.9c-14.3,21.5-28.9,42.8-43.2,64.3
	c-2.3,3.4-3.4,7.6-5.7,11c-9.5,13.9-22.8,19-40.2,14.6c0,5.9,0,10.3,0,14.7c0,17.3,0,34.6,0,51.9c0,5-0.2,10.3-6.7,10.4
	c-6.9,0.1-7.2-5.4-7.2-10.7c0.1-9.4,0-18.7,0-28.1c-0.6,0-1.2,0-1.8,0c0,10,0.4,20-0.3,29.9c-0.2,3-2.7,7.2-5.4,8.5
	c-4.4,2.2-8.1-1.8-8.2-8.3c-0.1-19.9,0-39.8-0.1-59.7C119,174.7,118.8,172.3,118.7,169.3z M133.3,155c5.7,0,11.5-0.6,17.1,0.1
	c12.3,1.7,22-2,29.6-12.1c2.3-3.1,3.8-5,2.4-9.1c-7.9-22.3-15.4-44.7-23.3-67c-0.8-2.1-4.1-4.6-6.3-4.7c-11.8-0.6-23.7-0.4-35.5-0.8
	c-5-0.2-7.5,1.5-9.1,6.6c-6.7,20.5-13.5,40.9-21.1,61c-2.9,7.6-1.6,11.9,4,17.5c6.2,6.1,12.2,9.6,21.1,8.7
	C119,154.4,126.2,155,133.3,155z M73.6,133.2c0.4-0.2,0.8-0.3,1.2-0.5c-1.5-22.7-2.9-45.3-4.5-69.6C57.5,67,46.2,70.4,33.8,74.2
	C47.9,95,60.7,114.1,73.6,133.2z M197,65.2c-1.5,23.9-2.9,45.7-4.2,67.6c0.4,0.1,0.9,0.2,1.3,0.3c12.6-18.7,25.2-37.5,38.8-57.6
	C220.7,71.9,209.5,68.8,197,65.2z M80.1,127.6c0.5,0.1,0.9,0.3,1.4,0.4c7.5-21.7,14.9-43.4,22.7-66.2c-10.1,0.6-18.9,1.1-28.1,1.6
	C77.5,85.7,78.8,106.6,80.1,127.6z M163.4,62.3c7.8,22.7,15.3,44.3,22.8,66c0.4-0.1,0.8-0.3,1.3-0.4c1.3-20.7,2.5-41.3,3.8-62.9
	C181.9,64.1,173.1,63.2,163.4,62.3z"/>
<path d="M146.9,138.8c0,7.2-5.8,13.1-13,13.2c-7.3,0.1-13.1-5.6-13.2-12.9c-0.2-7.6,5.9-13.7,13.3-13.5
	C141.2,125.7,146.9,131.6,146.9,138.8z"/>
</svg>
