<?xml version="1.0" encoding="utf-8"?>
<!-- Generator: Adobe Illustrator 19.2.0, SVG Export Plug-In . SVG Version: 6.00 Build 0)  -->
<svg version="1.1" id="Capa_1" xmlns="http://www.w3.org/2000/svg" xmlns:xlink="http://www.w3.org/1999/xlink" x="0px" y="0px"
	 viewBox="0 0 266.7 256" style="enable-background:new 0 0 266.7 256;" xml:space="preserve">
<path d="M226,22.8c-17,17-33.4,33.4-49.9,49.9c-0.5,0.5-0.8,1.5-0.6,2.2c0.8,4.7-2.3,8.9-7.2,9c-8.1,0.2-16.1,0.1-24.2,0
	c-2.3,0-4.2-0.9-5.8-2.5c-4-4.1-8-8.1-12.6-12.7c-0.5,0.8-0.8,1.6-1.3,2.1c-8.9,9-17.9,18-26.9,26.9c-1.6,1.6-2.6,3.1-2.2,5.4
	c0.2,1.1,0,2.3,0,3.7c19.4,0,38.8,0,58.3,0c0,2.6,0,5,0,7.7c-4.2,0-8.5,0-13,0c0,28.4,0,56.5,0,84.8c-38.8,0-77.4,0-116.2,0
	c0-4.2,0-8.4,0-12.8c36.1,0,72.1,0,108.3,0c0-24.1,0-47.9,0-71.8c-12.5,0-24.8,0-37.4,0c0,0.9,0,1.8,0,2.6c0,17.2,0,34.3,0,51.5
	c0,5.3-3.3,9.9-8.2,11.6c-4.9,1.7-10.2,0.2-13.5-3.7c-2-2.4-2.9-5.2-2.9-8.4c0-17,0-34,0-51c0-0.8,0-1.6,0-2.6
	c-15.4,0-30.8,0-46.2,0c0-2.6,0-5,0-7.6c15.2,0,30.6,0,46.2,0c0-0.9,0-1.7,0-2.4c0-7.1,0-14.1,0-21.2c0-2.5,0.8-4.5,2.5-6.2
	c10.8-10.7,21.5-21.5,32.3-32.2c4.2-4.2,9.4-4.2,14.6-1.4c4.7,2.6,8,6.5,11.7,10.1c4.7,4.5,9.2,9.1,13.7,13.8
	c1.1,1.1,2.2,1.5,3.8,1.5c6-0.1,12-0.4,17.9,0.1c3.6,0.3,5.6-1.1,7.8-3.4c16.8-17,33.7-33.8,50.5-50.7c0.6-0.6,1.1-1.2,1.8-1.6
	c1.7-1.1,3.7-0.4,4.3,1.6c0.2,0.8,0.2,1.7,0.2,2.6c0,59.9,0,119.8,0,179.7c0,0.7,0,1.4,0,2.3c-1.9,0-3.7,0-5.7,0
	C226,140.9,226,82.1,226,22.8z"/>
<path d="M243.1,223.6c0,5.4,0,11.4,0,17.5c0,0.6-0.1,1.1-0.1,1.8c-4.4,0.2-8.6-0.5-12.5-2.4c-9.7-4.6-19.4-4.5-29.2-0.2
	c-8.9,3.8-17.9,3.7-26.8-0.2c-8.9-4-17.9-4.1-26.8-0.2c-9.7,4.2-19.3,4.2-29.1-0.1c-8.4-3.7-17-3.7-25.4-0.1
	c-10,4.3-19.8,4.4-29.9-0.1c-8.4-3.7-17-3.3-25.4,0.2c-6.3,2.6-9.8,3.3-14.3,3.1c0-6.6,0-13.2,0-20c6.1,0.1,11.5-2.4,17.2-4.4
	c7.6-2.6,15.4-2.3,22.8,0.9c9.9,4.4,19.6,4.4,29.5,0.1c8.5-3.7,17.3-3.7,25.8,0.1c9.7,4.2,19.2,4.3,28.9,0c8.7-3.8,17.5-3.8,26.2,0
	c9.6,4.2,19,4.2,28.6,0c8.7-3.8,17.4-3.6,26.3-0.1C233.3,221.1,238.1,222.1,243.1,223.6z"/>
<path d="M133.7,44.3c-8.4,0-15.2-6.7-15.3-15.2c-0.1-8.5,6.9-15.4,15.3-15.4c8.5,0.1,15.2,6.8,15.1,15.3
	C148.9,37.5,142.1,44.3,133.7,44.3z"/>
</svg>
