<?xml version="1.0" encoding="utf-8"?>
<!-- Generator: Adobe Illustrator 19.2.0, SVG Export Plug-In . SVG Version: 6.00 Build 0)  -->
<svg version="1.1" id="Capa_1" xmlns="http://www.w3.org/2000/svg" xmlns:xlink="http://www.w3.org/1999/xlink" x="0px" y="0px"
	 viewBox="0 0 266.7 256" style="enable-background:new 0 0 266.7 256;" xml:space="preserve">
<path d="M116.8,0.8c6.3,8.9,12.7,17.7,19,26.6c2.8,4,5.4,7.6,10.7,9.1c9.8,2.8,19.3,6.7,29.1,10.2c-3.2-16.8,2.4-28.5,14.6-30.6
	c13-2.3,22.9,4.7,25.1,16.1c2.5,12.9-5.4,23.3-19.5,25.9c16.8,15.7,33.4,31.2,50,46.7c2,1.9,4.4,3.6,5.8,5.8c3.1,5,2,9.6-2.6,13.3
	c-4.7,3.7-8.6,3.5-13.2-0.7c-9.5-8.7-18.9-17.6-28.4-26.4c-1.3-1.2-3.3-1.9-4.2-3.4c-5.3-8.3-11.1-6.3-18.2-2.2
	c-10.1,5.8-20.8,10.5-31.7,16c7.8,7.1,15.1,14.3,23.1,20.6c7,5.5,10.5,11.4,8.4,20.8c-2,9.3-2.2,18.9-3.4,28.4
	c-0.9,7.5-1.8,15-3.4,22.4c-1.3,6.1-8.5,11-13.8,10.1c-6.9-1.1-11.8-6.6-11.3-13.7c0.9-11.5,2.4-22.9,3.6-34.3
	c0.4-3.6,1.1-7.2,1.2-10.8c0.1-1.6-0.4-3.8-1.5-4.9c-8.8-8.4-17.9-16.6-27.8-25.7c0,6,0,10.9,0,15.8c0,9.3-2.3,12.4-10.7,16.1
	c-12.6,5.6-25,11.5-37.5,17.3c-5.1,2.4-10.3,4.4-15.8,1.2c-5.2-3.1-7.3-7.6-6.7-13.7c0.6-5.7,4.5-8.7,9-10.8
	c9.8-4.6,19.8-8.8,29.6-13.3c6-2.8,5.6-4.3,5.2-10.9c-0.5-10.3,0-20.7,1-31c0.6-6.1,5.5-9.9,10.7-12.6c11.2-5.9,22.5-11.5,33.8-17.3
	c0.9-0.4,1.6-1,3.3-2.1c-6.1-2.5-11.6-5.1-17.2-6.9c-5.2-1.7-8.9-4.6-11.8-9.1c-5.1-7.8-10.6-15.4-15.9-23.1
	c-5.8-8.4-5.3-12.3,2.2-18.9C110.8,0.8,113.8,0.8,116.8,0.8z"/>
<path d="M257.2,257.8c-7.6-2.2-14.7-3.9-21.6-6.2c-28.5-9.3-57.1-18-85.2-28.2c-31.7-11.4-62.9-24.1-94.3-36.3
	c-3-1.2-5.5-1.5-8.8,0.1c-8.4,4.1-17.1,7.5-25.8,10.9c-3.2,1.2-6.6,0.9-8.5-2.7c-1.9-3.7-0.9-6.4,2.5-8.8c4.6-3.2,8.8-6.9,13.6-10.8
	c-4.2-1.9-8.3-3.3-12.1-5.4c-2-1.1-4.4-3.2-4.8-5.3c-0.9-4.2,2.4-6.4,6.6-4.6c19.6,8.4,39,17.2,58.6,25.3
	c18.1,7.5,36.4,14.7,54.9,21.3c39.7,14.3,79.5,28.2,119.3,42.2C257.6,251.6,257.7,251.4,257.2,257.8z"/>
</svg>
