<?xml version="1.0" encoding="utf-8"?>
<!-- Generator: Adobe Illustrator 19.2.0, SVG Export Plug-In . SVG Version: 6.00 Build 0)  -->
<svg version="1.1" id="Capa_1" xmlns="http://www.w3.org/2000/svg" xmlns:xlink="http://www.w3.org/1999/xlink" x="0px" y="0px"
	 viewBox="0 0 266.7 256" style="enable-background:new 0 0 266.7 256;" xml:space="preserve">
<path d="M137.8,160c-39.3,0-78.5,0-118.1,0C59.1,111.9,98.3,64,137.8,15.8C137.8,64.1,137.8,111.9,137.8,160z"/>
<path d="M149.2,159.9c0-36.9,0-73.8,0-111.1c4.2,2.4,8.3,4.4,12.1,6.9c22.6,14.4,40.1,33.2,51,57.8c6.5,14.7,9.2,30.2,7.5,46.4
	C196.3,159.9,172.8,159.9,149.2,159.9z"/>
<path d="M47.7,199c0-9.3,0-18.7,0-28.2c54,0,108,0,162.3,0c-0.6,0.7-1,1.4-1.5,2c-5,6.3-10.1,12.5-14.9,19
	c-8.5,11.3-23.9,14.7-36,9.5c-9.5-4.1-18.7-4.2-28.3,0c-7.9,3.5-16.1,3.3-24-0.1c-9.2-4.1-18.3-4.1-27.5,0
	c-7.9,3.4-15.9,3.4-23.9,0.3C51.8,200.5,49.8,199.8,47.7,199z"/>
<path d="M221.2,221.1c0,6.4,0,12.6,0,19c-3.3,0.3-6.4-0.5-9.5-1.5c-3.3-1.1-6.5-2.5-9.8-3.4c-6.3-1.6-12.6-0.9-18.6,1.8
	c-9.3,4.2-18.4,4.1-27.7,0c-8-3.6-16.2-3.6-24.2,0c-9.4,4.1-18.5,4.2-27.9,0c-8-3.5-16.2-3.5-24.2,0c-9.3,4.1-18.4,4.1-27.7,0
	c-8.1-3.6-16.4-3.4-24.6,0.1c-4.2,1.8-8.5,3.1-13.3,3c0-6.4,0-12.6,0-19.2c7.2,0.6,13.2-3.8,20-5c6.2-1.1,12.3-0.6,18,2
	c9.2,4.1,18.3,4,27.5,0c8.1-3.5,16.4-3.5,24.4,0c9.2,4,18.3,4,27.5,0c8.1-3.5,16.5-3.5,24.6,0c9.1,4,18,4,27.1,0
	c8.3-3.6,16.7-3.5,25,0C212.1,219.8,216.3,221.1,221.2,221.1z"/>
</svg>
