<?xml version="1.0" encoding="utf-8"?>
<!-- Generator: Adobe Illustrator 19.2.0, SVG Export Plug-In . SVG Version: 6.00 Build 0)  -->
<svg version="1.1" id="Capa_1" xmlns="http://www.w3.org/2000/svg" xmlns:xlink="http://www.w3.org/1999/xlink" x="0px" y="0px"
	 viewBox="0 0 266.7 256" style="enable-background:new 0 0 266.7 256;" xml:space="preserve">
<path d="M81.8,0.8c4.3,1,8.7,1.9,13,3c47.9,11.6,89.3,34.3,120.8,72.9c16.8,20.6,27.2,44.1,29.4,70.8c0.1,1.7-0.9,4.3-2.3,5.1
	c-27.5,17.8-55.2,35.4-82.8,53.1c-0.5,0.3-1.1,0.6-2,1c-6.2-16-12.3-31.8-18.4-47.6C119.8,108.2,100.1,57.1,80.4,6.1
	c-0.7-1.7-1.1-3.5-1.6-5.2C79.8,0.8,80.8,0.8,81.8,0.8z M169.5,104.1c-1.2,0-2.3-0.1-3.5,0c-9.5,1.3-19.1,2.5-28.6,4.2
	c-1.4,0.3-2.4,3.2-3.6,4.9c1.8,1,3.6,2.2,5.5,2.9c0.8,0.3,1.9-0.4,2.9-0.5c10.7-1,21.5-3,32.2-2.7c23.9,0.8,43.9,10.1,57.5,30.7
	c1.6,2.4,2.9,5.5,6.5,3.3c3.6-2.2,2-5.1,0.5-7.8c-6.8-12.4-16.7-21.5-29.5-27.3C196.7,106.1,183.3,104.2,169.5,104.1z"/>
<path d="M16,257.7c0-8.4,0-15.4,0-21.9c6.6-2.1,13.1-4.1,19.5-6.1c7.8-2.4,15.6-2.4,23,0.9c11.4,5.1,22.4,5.1,33.8,0.1
	c8.6-3.8,17.6-3.7,26.2,0.1c11,4.9,21.8,5,32.8,0.1c9-4,18.2-3.9,27.2,0.1c10.9,4.8,21.5,4.7,32.4-0.1c8.3-3.7,16.8-3.6,25.4-0.7
	c5.6,1.9,11.3,3.7,17.3,5.6c0,6.5,0,13.6,0,21.9c-4.8-1.2-9.2-1.7-13.2-3.4c-10.8-4.6-21.2-4.6-31.9,0.1c-9.1,4-18.5,3.9-27.7,0
	c-10.7-4.7-21.2-4.6-31.9,0c-9.1,4-18.5,3.9-27.7-0.1c-10.5-4.6-20.9-4.7-31.4-0.1c-9.3,4.1-18.8,4.1-28.1,0.1
	c-10.7-4.7-21.2-4.5-31.9,0.1C25.6,255.9,21.1,256.4,16,257.7z"/>
<path d="M67.6,146.3c4,9.1,7.5,17.4,11.4,25.5c0.6,1.3,2.9,2.6,4.5,2.7c7.7,0.3,15.3-0.2,23,0.3c3.2,0.2,6.9,1.6,9.3,3.8
	c8.4,7.5,16.6,15.4,24.4,23.6c2.2,2.3,4.3,6.1,4.1,9c-0.2,2.9-2.9,6.3-5.5,8c-3.7,2.4-7.7,0.8-10.9-2.2
	c-6.4-6.1-12.8-12.2-18.9-18.5c-2.6-2.7-5.3-3.9-9.2-3.8c-10.8,0.3-21.6-0.1-32.5,0.1c-9.2,0.2-15.5-3.5-18.9-12.3
	c-3.8-9.6-7.6-19.2-12.4-28.3c-4.8-9.1,0.5-22.9,14.6-23c8.5,0,17,0.3,25.5-0.2c4.3-0.2,8.8-1.3,12.9-2.8c5.5-2,10.6-4.8,15.9-7.2
	c4-1.8,8-0.3,9.7,3.3c1.8,3.7,0.5,7.8-3.4,9.7c-8.4,4-16.9,7.9-25.4,11.6c-1.7,0.8-3.9,0.7-5.9,0.8
	C76.1,146.4,72.3,146.3,67.6,146.3z"/>
<path d="M55.9,113.7c-0.1,7.8-6.7,14.3-14.4,14.3c-7.8,0-14.7-7-14.5-14.8c0.2-7.7,6.9-14.4,14.5-14.4
	C49.3,98.8,56.1,105.8,55.9,113.7z"/>
</svg>
